<?xml version="1.0" encoding="UTF-8" standalone="no"?>
<!-- Created with Inkscape (http://www.inkscape.org/) -->

<svg
   xmlns:dc="http://purl.org/dc/elements/1.1/"
   xmlns:cc="http://creativecommons.org/ns#"
   xmlns:rdf="http://www.w3.org/1999/02/22-rdf-syntax-ns#"
   xmlns:svg="http://www.w3.org/2000/svg"
   xmlns="http://www.w3.org/2000/svg"
   xmlns:sodipodi="http://sodipodi.sourceforge.net/DTD/sodipodi-0.dtd"
   xmlns:inkscape="http://www.inkscape.org/namespaces/inkscape"
   width="203.0294mm"
   height="102.20631mm"
   viewBox="0 0 203.0294 102.20631"
   version="1.1"
   id="svg8"
   inkscape:version="0.92.4 5da689c313, 2019-01-14"
   sodipodi:docname="po_family.svg">
  <defs
     id="defs2" />
  <sodipodi:namedview
     id="base"
     pagecolor="#ffffff"
     bordercolor="#666666"
     borderopacity="1.0"
     inkscape:pageopacity="0.0"
     inkscape:pageshadow="2"
     inkscape:zoom="0.7"
     inkscape:cx="343.21198"
     inkscape:cy="284.82342"
     inkscape:document-units="mm"
     inkscape:current-layer="layer2"
     showgrid="false"
     inkscape:window-width="1678"
     inkscape:window-height="990"
     inkscape:window-x="1920"
     inkscape:window-y="29"
     inkscape:window-maximized="1" />
  <metadata
     id="metadata5">
    <rdf:RDF>
      <cc:Work
         rdf:about="">
        <dc:format>image/svg+xml</dc:format>
        <dc:type
           rdf:resource="http://purl.org/dc/dcmitype/StillImage" />
        <dc:title></dc:title>
      </cc:Work>
    </rdf:RDF>
  </metadata>
  <g
     inkscape:label="Layer 1"
     inkscape:groupmode="layer"
     id="layer1"
     transform="translate(-52.354446,-137.68459)">
    <g
       id="g878">
      <g
         style="stroke-width:1;stroke-miterlimit:4;stroke-dasharray:none"
         id="g3780">
        <path
           style="fill:none;stroke:#000000;stroke-width:1;stroke-linecap:butt;stroke-linejoin:miter;stroke-miterlimit:4;stroke-dasharray:none;stroke-opacity:1"
           d="M 199.19345,144.29762 C 163.00679,149.03059 66.830566,161.45223 66.830566,179.76415"
           id="path3721"
           inkscape:connector-curvature="0"
           sodipodi:nodetypes="cc" />
        <path
           style="fill:none;stroke:#000000;stroke-width:1;stroke-linecap:butt;stroke-linejoin:miter;stroke-miterlimit:4;stroke-dasharray:none;stroke-opacity:1"
           d="M 199.19345,215.23069 C 163.00679,210.49772 66.830566,198.07608 66.830566,179.76415"
           id="path3721-7"
           inkscape:connector-curvature="0"
           sodipodi:nodetypes="cc" />
      </g>
      <ellipse
         style="fill:none;stroke:#000400;stroke-width:0.99983424;stroke-miterlimit:4;stroke-dasharray:none;stroke-opacity:1"
         ry="35.615185"
         rx="22.111609"
         cy="179.75952"
         cx="201.18491"
         id="path3789" />
      <path
         transform="matrix(0.26458333,0,0,0.26458333,0,87)"
         inkscape:connector-curvature="0"
         id="path824"
         d="m 725.82766,221.68676 c -79.10747,10.11759 -158.06863,21.76243 -236.45264,36.54306 -60.67021,12.06857 -121.76666,24.50344 -179.56863,47.0556 -18.85129,8.20141 -39.48592,16.69714 -51.9102,33.90852 -6.82897,9.02466 -3.25589,21.57952 4.48847,28.78146 18.36989,17.79563 43.2856,26.40644 66.7878,35.15399 71.69043,24.08823 146.35368,37.69256 220.69908,50.66506 59.59044,10.00555 119.4771,18.51046 179.35946,26.31577 3.79072,-1.32925 -1.85588,-4.24872 -3.24005,-5.29722 -22.33059,-16.0326 -35.15488,-42.07788 -42.76135,-67.83427 -12.41072,-45.53989 -10.28247,-95.67163 9.71482,-138.82298 7.88713,-17.00584 19.69826,-32.30469 34.73189,-43.68515 1.68771,-1.54683 0.1238,-3.34812 -1.84865,-2.78384 z"
         style="opacity:1;fill:#cdde87;fill-opacity:1;stroke:#000400;stroke-width:3.81789947;stroke-miterlimit:4;stroke-dasharray:none;stroke-opacity:1" />
      <path
         transform="matrix(0.26458333,0,0,0.26458333,0,87)"
         inkscape:connector-curvature="0"
         id="path826"
         d="m 717.43273,224.14112 c -109.21553,14.34604 -218.48088,30.48979 -325.4881,57.05394 -38.10541,10.1841 -76.92347,20.44937 -111.45417,40.05486 -10.19316,6.66649 -22.53602,14.70449 -24.57709,27.71015 -0.43192,14.04827 12.68888,23.25474 23.24131,30.09335 35.86784,20.83162 76.47461,31.45797 116.28542,41.95557 107.79719,26.37342 217.85681,41.9048 327.67079,57.12236 3.75443,-0.93686 -0.78725,-4.80364 -2.39121,-5.75906 -18.01645,-14.64301 -28.95062,-36.38224 -36.39312,-58.00484 -16.72395,-52.13598 -13.22624,-111.91038 14.54999,-159.76323 6.51603,-11.57679 16.92599,-20.35112 25.22477,-30.34275 -1.21778,-1.93237 -4.77149,0.15374 -6.66859,-0.12035 z"
         style="opacity:1;fill:#cdde87;fill-opacity:1;stroke:#000400;stroke-width:3.81789947;stroke-miterlimit:4;stroke-dasharray:none;stroke-opacity:1" />
      <path
         transform="matrix(0.26458333,0,0,0.26458333,0,87)"
         inkscape:connector-curvature="0"
         id="path828"
         d="m 757.97694,217.78229 c -22.29036,0.42027 -40.7491,16.78618 -52.68548,34.34269 -24.71591,37.68913 -30.86963,85.14239 -24.79326,129.14508 5.18557,33.73152 18.21007,68.97893 46.08904,90.44524 16.09283,12.97212 39.60464,15.86645 57.9387,5.90124 28.03749,-14.87255 43.22131,-45.22306 51.29202,-74.67528 11.63775,-45.46534 8.54595,-95.68372 -12.65066,-137.93237 -11.09693,-20.9358 -28.4704,-41.89522 -52.96593,-46.39402 -4.0318,-0.71071 -8.13478,-0.9479 -12.22443,-0.83258 z"
         style="opacity:1;fill:#89a02c;fill-opacity:1;stroke:#000400;stroke-width:3.81789947;stroke-miterlimit:4;stroke-dasharray:none;stroke-opacity:1" />
      <path
         transform="matrix(0.26458333,0,0,0.26458333,0,87)"
         inkscape:connector-curvature="0"
         id="path830"
         d="m 732.39032,220.23135 c -1.1024,0.21061 -2.89169,-0.0768 -3.16372,1.39892 -0.23991,1.10689 0.77383,2.62641 1.93474,1.70563 0.87135,-0.63151 2.75384,-1.04273 2.32133,-2.48513 -0.20115,-0.41089 -0.63644,-0.66033 -1.09235,-0.61942 z"
         style="opacity:1;fill:#000000;fill-opacity:1;stroke:#000400;stroke-width:0.67491567;stroke-miterlimit:4;stroke-dasharray:none;stroke-opacity:1" />
      <path
         transform="matrix(0.26458333,0,0,0.26458333,0,87)"
         inkscape:connector-curvature="0"
         id="path840"
         d="m 732.09417,478.62595 c -0.40411,0.11391 -0.6611,0.48235 -0.75884,0.87434 -0.20047,0.41753 -0.1529,0.97154 0.22444,1.2729 0.36881,0.32883 0.90142,0.25683 1.35583,0.35294 0.24124,0.0347 0.45701,0.0949 0.71124,0.0143 0.593,-0.13397 0.91729,-0.87484 0.63729,-1.40894 -0.23366,-0.50082 -0.81793,-0.65348 -1.25212,-0.92842 -0.27308,-0.17391 -0.59861,-0.26234 -0.91784,-0.17716 z"
         style="opacity:1;fill:#000000;fill-opacity:1;stroke:#000400;stroke-width:0.11930936;stroke-miterlimit:4;stroke-dasharray:none;stroke-opacity:1" />
      <path
         transform="matrix(0.26458333,0,0,0.26458333,0,87)"
         inkscape:connector-curvature="0"
         id="path842"
         d="m 726.35799,476.46076 c -0.48504,0.034 -0.86465,0.43853 -0.95948,0.9012 -0.17586,0.48082 0.0165,1.07406 0.48593,1.30515 0.36885,0.16102 0.78377,0.18216 1.1803,0.2144 0.6048,0.018 1.13554,-0.59117 0.99591,-1.18775 -0.0715,-0.51818 -0.58154,-0.7699 -0.97335,-1.02985 -0.21782,-0.13501 -0.47038,-0.22247 -0.72931,-0.20315 z"
         style="opacity:1;fill:#000000;fill-opacity:1;stroke:#000400;stroke-width:0.11930936;stroke-miterlimit:4;stroke-dasharray:none;stroke-opacity:1" />
    </g>
    <g
       id="g861"
       transform="translate(3.7797619,-32.883929)">
      <g
         id="g866">
        <path
           style="fill:none;stroke:#000000;stroke-width:1;stroke-linecap:butt;stroke-linejoin:miter;stroke-miterlimit:4;stroke-dasharray:none;stroke-opacity:1"
           d="M 56.928408,267.33308 H 228.24818"
           id="path844"
           inkscape:connector-curvature="0" />
        <path
           style="fill:none;stroke:#000000;stroke-width:1;stroke-linecap:butt;stroke-linejoin:miter;stroke-miterlimit:4;stroke-dasharray:none;stroke-opacity:1"
           d="m 228.24818,267.33308 -8.67538,5.00874"
           id="path846"
           inkscape:connector-curvature="0" />
        <path
           style="fill:none;stroke:#000000;stroke-width:1;stroke-linecap:butt;stroke-linejoin:miter;stroke-miterlimit:4;stroke-dasharray:none;stroke-opacity:1"
           d="m 228.24818,267.33308 -8.67538,-5.00874"
           id="path846-3"
           inkscape:connector-curvature="0" />
      </g>
      <text
         id="text882"
         y="265.46222"
         x="98.355186"
         style="font-style:normal;font-weight:normal;font-size:10.58333302px;line-height:1.25;font-family:sans-serif;letter-spacing:0px;word-spacing:0px;fill:#000000;fill-opacity:1;stroke:none;stroke-width:0.26458332"
         xml:space="preserve"><tspan
           style="stroke-width:0.26458332"
           y="265.46222"
           x="98.355186"
           id="tspan880"
           sodipodi:role="line">Parameter value</tspan></text>
    </g>
    <text
       xml:space="preserve"
       style="font-style:normal;font-variant:normal;font-weight:normal;font-stretch:normal;font-size:10.58333302px;line-height:1.25;font-family:sans-serif;-inkscape-font-specification:'sans-serif, Normal';font-variant-ligatures:normal;font-variant-caps:normal;font-variant-numeric:normal;font-feature-settings:normal;text-align:center;letter-spacing:0px;word-spacing:0px;writing-mode:lr-tb;text-anchor:middle;fill:#000000;fill-opacity:1;stroke:none;stroke-width:0.26458332"
       x="238.67169"
       y="164.96886"
       id="text886"><tspan
         sodipodi:role="line"
         id="tspan884"
         x="238.67169"
         y="164.96886"
         style="font-style:normal;font-variant:normal;font-weight:normal;font-stretch:normal;font-size:10.58333302px;font-family:sans-serif;-inkscape-font-specification:'sans-serif, Normal';font-variant-ligatures:normal;font-variant-caps:normal;font-variant-numeric:normal;font-feature-settings:normal;text-align:center;writing-mode:lr-tb;text-anchor:middle;stroke-width:0.26458332">Family</tspan><tspan
         sodipodi:role="line"
         x="240.35376"
         y="178.19803"
         style="font-style:normal;font-variant:normal;font-weight:normal;font-stretch:normal;font-size:10.58333302px;font-family:sans-serif;-inkscape-font-specification:'sans-serif, Normal';font-variant-ligatures:normal;font-variant-caps:normal;font-variant-numeric:normal;font-feature-settings:normal;text-align:center;writing-mode:lr-tb;text-anchor:middle;stroke-width:0.26458332"
         id="tspan888">of </tspan><tspan
         sodipodi:role="line"
         x="238.67169"
         y="191.42719"
         style="font-style:normal;font-variant:normal;font-weight:normal;font-stretch:normal;font-size:10.58333302px;font-family:sans-serif;-inkscape-font-specification:'sans-serif, Normal';font-variant-ligatures:normal;font-variant-caps:normal;font-variant-numeric:normal;font-feature-settings:normal;text-align:center;writing-mode:lr-tb;text-anchor:middle;stroke-width:0.26458332"
         id="tspan890">orbits</tspan></text>
  </g>
  <g
     inkscape:groupmode="layer"
     id="layer2"
     inkscape:label="POs"
     transform="translate(-52.354446,-50.684592)">
    <path
       style="fill:none;stroke:#000000;stroke-width:0.26458332px;stroke-linecap:butt;stroke-linejoin:miter;stroke-opacity:1"
       d="m 74.461309,84.133926 c -3.037746,6.088683 -1.661385,11.248081 0,16.347474"
       id="path893"
       inkscape:connector-curvature="0"
       sodipodi:nodetypes="cc" />
    <path
       style="fill:none;stroke:#000000;stroke-width:0.27120164px;stroke-linecap:butt;stroke-linejoin:miter;stroke-opacity:1"
       d="m 80.72756,103.91114 c -1.715423,-6.87921 -2.766665,-13.952263 0,-22.139564 h 0.377975 v 0 0"
       id="path895"
       inkscape:connector-curvature="0"
       sodipodi:nodetypes="ccccc" />
    <text
       xml:space="preserve"
       style="font-style:normal;font-weight:normal;font-size:10.58333302px;line-height:1.25;font-family:sans-serif;letter-spacing:0px;word-spacing:0px;fill:#000000;fill-opacity:1;stroke:none;stroke-width:0.26458332"
       x="51.31575"
       y="69.148956"
       id="text899"><tspan
         sodipodi:role="line"
         id="tspan897"
         x="51.31575"
         y="69.148956"
         style="stroke-width:0.26458332">Initial</tspan><tspan
         sodipodi:role="line"
         x="51.31575"
         y="82.37812"
         style="stroke-width:0.26458332"
         id="tspan901">POs</tspan></text>
    <path
       style="fill:#0000ff;stroke:#0000ff;stroke-width:1;stroke-linecap:butt;stroke-linejoin:miter;stroke-miterlimit:4;stroke-dasharray:none;stroke-opacity:1"
       d="M 74.461309,84.133926 93.990611,72.415138"
       id="path903"
       inkscape:connector-curvature="0"
       inkscape:transform-center-x="2.5182742"
       inkscape:transform-center-y="2.7285278" />
    <path
       style="fill:#0000ff;stroke:#0000ff;stroke-width:1;stroke-linecap:butt;stroke-linejoin:miter;stroke-miterlimit:4;stroke-dasharray:none;stroke-opacity:1"
       d="m 74.461309,100.4814 19.529303,11.71879"
       id="path903-4"
       inkscape:connector-curvature="0"
       inkscape:transform-center-x="2.5182742"
       inkscape:transform-center-y="-2.7285278" />
    <path
       style="fill:none;stroke:#ff0000;stroke-width:0.5;stroke-linecap:butt;stroke-linejoin:miter;stroke-miterlimit:4;stroke-dasharray:none;stroke-opacity:1"
       d="m 93.990609,72.415137 c -4.307767,13.261684 -3.136378,26.523369 2e-6,39.785053"
       id="path922"
       inkscape:connector-curvature="0"
       sodipodi:nodetypes="cc" />
    <path
       style="fill:none;stroke:#ff0000;stroke-width:0.50200492;stroke-linecap:butt;stroke-linejoin:miter;stroke-miterlimit:4;stroke-dasharray:none;stroke-opacity:1"
       d="m 93.990609,72.415137 c 1.401507,-0.139508 2.388142,1.090872 2.790634,2.036057 l -0.02089,0.02072 0.112212,0.389788"
       id="path928"
       inkscape:connector-curvature="0"
       sodipodi:nodetypes="cccc" />
    <path
       style="fill:none;stroke:#ff0000;stroke-width:0.50200492;stroke-linecap:butt;stroke-linejoin:miter;stroke-miterlimit:4;stroke-dasharray:none;stroke-opacity:1"
       d="m 93.990611,112.20019 c 1.401507,0.13951 2.388142,-1.09087 2.790634,-2.03606 l -0.02089,-0.0207 0.112212,-0.38978"
       id="path928-7"
       inkscape:connector-curvature="0"
       sodipodi:nodetypes="cccc" />
    <text
       xml:space="preserve"
       style="font-style:normal;font-weight:normal;font-size:10.58333302px;line-height:1.25;font-family:sans-serif;letter-spacing:0px;word-spacing:0px;fill:#000000;fill-opacity:1;stroke:none;stroke-width:0.26458332"
       x="92.47525"
       y="58.725445"
       id="text947"><tspan
         sodipodi:role="line"
         id="tspan945"
         x="92.47525"
         y="58.725445"
         style="stroke-width:0.26458332">Predicted</tspan><tspan
         sodipodi:role="line"
         x="92.47525"
         y="71.954613"
         style="stroke-width:0.26458332"
         id="tspan949">PO</tspan></text>
  </g>
</svg>
