<?xml version="1.0" encoding="UTF-8"?>
<svg xmlns="http://www.w3.org/2000/svg" xmlns:xlink="http://www.w3.org/1999/xlink" width="624.638672pt" height="121.85952pt" viewBox="0 0 624.638672 121.85952" version="1.1">
<defs>
<clipPath id="clip1">
  <path d="M 403.359375 29 L 468.800781 29 L 468.800781 29.941406 L 403.359375 29.941406 Z M 403.359375 29 "/>
</clipPath>
<clipPath id="clip2">
  <path d="M 459.007812 22.574219 L 468.800781 22.574219 L 468.800781 32.394531 L 459.007812 32.394531 Z M 459.007812 22.574219 "/>
</clipPath>
<clipPath id="clip3">
  <path d="M 459.007812 26.871094 L 468.800781 26.871094 L 468.800781 36.691406 L 459.007812 36.691406 Z M 459.007812 26.871094 "/>
</clipPath>
<clipPath id="clip4">
  <path d="M 98 29 L 444 29 L 444 121.859375 L 98 121.859375 Z M 98 29 "/>
</clipPath>
<clipPath id="clip5">
  <path d="M 619 13 L 624.640625 13 L 624.640625 25 L 619 25 Z M 619 13 "/>
</clipPath>
<clipPath id="clip6">
  <path d="M 561 22 L 624.640625 22 L 624.640625 35 L 561 35 Z M 561 22 "/>
</clipPath>
<clipPath id="clip7">
  <path d="M 613 25 L 624.640625 25 L 624.640625 37 L 613 37 Z M 613 25 "/>
</clipPath>
</defs>
<g id="surface1">
<path style="fill:none;stroke-width:0.691296;stroke-linecap:butt;stroke-linejoin:miter;stroke:rgb(0%,0%,0%);stroke-opacity:1;stroke-miterlimit:4;" d="M 110.511719 29.25 C 110.511719 35.632812 105.070312 40.804688 98.359375 40.804688 C 91.648438 40.804688 86.207031 35.632812 86.207031 29.25 C 86.207031 22.871094 91.648438 17.699219 98.359375 17.699219 C 105.070312 17.699219 110.511719 22.871094 110.511719 29.25 Z M 110.511719 29.25 "/>
<path style="fill:none;stroke-width:1.0287;stroke-linecap:butt;stroke-linejoin:miter;stroke:rgb(0%,0%,0%);stroke-opacity:1;stroke-miterlimit:4;" d="M 158.925781 4.835938 L 256.585938 4.835938 L 256.585938 53.667969 L 158.925781 53.667969 Z M 158.925781 4.835938 "/>
<path style="fill:none;stroke-width:1.0287;stroke-linecap:butt;stroke-linejoin:miter;stroke:rgb(0%,0%,0%);stroke-opacity:1;stroke-miterlimit:4;" d="M 305.171875 4.835938 L 402.832031 4.835938 L 402.832031 53.667969 L 305.171875 53.667969 Z M 305.171875 4.835938 "/>
<path style="fill:none;stroke-width:0.458208;stroke-linecap:butt;stroke-linejoin:miter;stroke:rgb(0%,0%,0%);stroke-opacity:1;stroke-miterlimit:4;" d="M 256.429688 29.25 L 303.449219 29.25 "/>
<path style="fill:none;stroke-width:0.458208;stroke-linecap:butt;stroke-linejoin:miter;stroke:rgb(0%,0%,0%);stroke-opacity:1;stroke-miterlimit:4;" d="M 303.449219 29.25 L 299.125 24.933594 "/>
<path style="fill:none;stroke-width:0.458208;stroke-linecap:butt;stroke-linejoin:miter;stroke:rgb(0%,0%,0%);stroke-opacity:1;stroke-miterlimit:4;" d="M 303.449219 29.25 L 299.125 33.574219 "/>
<path style="fill:none;stroke-width:0.458208;stroke-linecap:butt;stroke-linejoin:miter;stroke:rgb(0%,0%,0%);stroke-opacity:1;stroke-miterlimit:4;" d="M 110.6875 29.25 L 157.703125 29.25 "/>
<path style="fill:none;stroke-width:0.458208;stroke-linecap:butt;stroke-linejoin:miter;stroke:rgb(0%,0%,0%);stroke-opacity:1;stroke-miterlimit:4;" d="M 157.703125 29.25 L 153.382812 24.933594 "/>
<path style="fill:none;stroke-width:0.458208;stroke-linecap:butt;stroke-linejoin:miter;stroke:rgb(0%,0%,0%);stroke-opacity:1;stroke-miterlimit:4;" d="M 157.703125 29.25 L 153.382812 33.574219 "/>
<g clip-path="url(#clip1)" clip-rule="nonzero">
<path style="fill:none;stroke-width:0.631916;stroke-linecap:butt;stroke-linejoin:miter;stroke:rgb(0%,0%,0%);stroke-opacity:1;stroke-miterlimit:4;" d="M 403.734375 40.920254 L 468.578125 40.920254 " transform="matrix(1,0,0,0.721869,0,0)"/>
</g>
<g clip-path="url(#clip2)" clip-rule="nonzero">
<path style="fill:none;stroke-width:0.631916;stroke-linecap:butt;stroke-linejoin:miter;stroke:rgb(0%,0%,0%);stroke-opacity:1;stroke-miterlimit:4;" d="M 468.578125 40.920254 L 462.617188 34.962412 " transform="matrix(1,0,0,0.721869,0,0)"/>
</g>
<g clip-path="url(#clip3)" clip-rule="nonzero">
<path style="fill:none;stroke-width:0.631916;stroke-linecap:butt;stroke-linejoin:miter;stroke:rgb(0%,0%,0%);stroke-opacity:1;stroke-miterlimit:4;" d="M 468.578125 40.920254 L 462.617188 46.878095 " transform="matrix(1,0,0,0.721869,0,0)"/>
</g>
<path style="fill:none;stroke-width:0.614845;stroke-linecap:butt;stroke-linejoin:miter;stroke:rgb(0%,0%,0%);stroke-opacity:1;stroke-miterlimit:4;" d="M 0 29.25 L 85.425781 29.25 "/>
<path style="fill:none;stroke-width:0.614845;stroke-linecap:butt;stroke-linejoin:miter;stroke:rgb(0%,0%,0%);stroke-opacity:1;stroke-miterlimit:4;" d="M 85.425781 29.25 L 77.574219 24.96875 "/>
<path style="fill:none;stroke-width:0.614845;stroke-linecap:butt;stroke-linejoin:miter;stroke:rgb(0%,0%,0%);stroke-opacity:1;stroke-miterlimit:4;" d="M 85.425781 29.25 L 77.574219 33.535156 "/>
<g clip-path="url(#clip4)" clip-rule="nonzero">
<path style="fill:none;stroke-width:0.458208;stroke-linecap:butt;stroke-linejoin:miter;stroke:rgb(0%,0%,0%);stroke-opacity:1;stroke-miterlimit:4;" d="M 98.324219 41.039062 L 98.324219 121.628906 L 443.714844 121.628906 L 443.714844 29.542969 "/>
</g>
<path style="fill:none;stroke-width:0.545688;stroke-linecap:butt;stroke-linejoin:miter;stroke:rgb(0%,0%,0%);stroke-opacity:1;stroke-miterlimit:4;" d="M 98.324219 108.324219 L 98.324219 41.039062 "/>
<path style="fill:none;stroke-width:0.545688;stroke-linecap:butt;stroke-linejoin:miter;stroke:rgb(0%,0%,0%);stroke-opacity:1;stroke-miterlimit:4;" d="M 98.324219 41.039062 L 94.042969 47.222656 "/>
<path style="fill:none;stroke-width:0.545688;stroke-linecap:butt;stroke-linejoin:miter;stroke:rgb(0%,0%,0%);stroke-opacity:1;stroke-miterlimit:4;" d="M 98.324219 41.039062 L 102.605469 47.222656 "/>
<path style=" stroke:none;fill-rule:nonzero;fill:rgb(0%,0%,0%);fill-opacity:1;" d="M 314.148438 18.378906 L 316.125 18.378906 L 316.125 20.890625 L 314.148438 20.890625 Z M 320.6875 23.066406 L 316.335938 28.917969 L 320.90625 35.09375 L 318.578125 35.09375 L 315.074219 30.367188 L 311.582031 35.09375 L 309.242188 35.09375 L 313.921875 28.800781 L 309.644531 23.066406 L 311.972656 23.066406 L 315.160156 27.351562 L 318.351562 23.066406 Z M 320.6875 23.066406 "/>
<path style=" stroke:none;fill-rule:nonzero;fill:rgb(0%,0%,0%);fill-opacity:1;" d="M 344.1875 27.722656 L 330.375 27.722656 L 330.375 25.96875 L 344.1875 25.96875 Z M 344.1875 32.125 L 330.375 32.125 L 330.375 30.367188 L 344.1875 30.367188 Z M 344.1875 32.125 "/>
<path style=" stroke:none;fill-rule:nonzero;fill:rgb(0%,0%,0%);fill-opacity:1;" d="M 362.382812 21.078125 L 361.34375 21.078125 C 361.34375 20.539062 361.191406 20.128906 360.882812 19.847656 C 360.601562 19.578125 360.171875 19.4375 359.585938 19.4375 C 358.851562 19.4375 358.335938 19.644531 358.03125 20.050781 C 357.730469 20.464844 357.582031 21.183594 357.582031 22.207031 L 357.582031 23.675781 L 360.78125 23.675781 L 360.78125 24.820312 L 357.582031 24.820312 L 357.582031 33.949219 L 360.109375 33.949219 L 360.109375 35.09375 L 353.714844 35.09375 L 353.714844 33.949219 L 355.605469 33.949219 L 355.605469 24.820312 L 353.714844 24.820312 L 353.714844 23.675781 L 355.605469 23.675781 L 355.605469 22.246094 C 355.605469 20.972656 355.933594 20.007812 356.597656 19.34375 C 357.269531 18.699219 358.246094 18.378906 359.519531 18.378906 C 360 18.378906 360.484375 18.421875 360.96875 18.511719 C 361.472656 18.601562 361.945312 18.730469 362.382812 18.902344 Z M 362.382812 21.078125 "/>
<path style=" stroke:none;fill-rule:nonzero;fill:rgb(0%,0%,0%);fill-opacity:1;" d="M 376.195312 38.96875 C 374.226562 37.980469 372.882812 36.808594 372.164062 35.445312 C 371.164062 33.511719 370.667969 31.636719 370.667969 29.816406 L 370.667969 28.277344 C 370.667969 26.460938 371.164062 24.582031 372.164062 22.644531 C 372.882812 21.285156 374.226562 20.109375 376.195312 19.121094 L 376.195312 20.402344 C 375.195312 20.898438 374.304688 21.882812 373.53125 23.351562 C 373.226562 23.949219 373.027344 24.625 372.9375 25.375 C 372.847656 26.121094 372.804688 27.089844 372.804688 28.277344 L 372.804688 29.816406 C 372.804688 31.003906 372.847656 31.976562 372.9375 32.726562 C 373.027344 33.46875 373.226562 34.144531 373.53125 34.742188 C 374.304688 36.210938 375.195312 37.195312 376.195312 37.691406 Z M 376.195312 38.96875 "/>
<path style=" stroke:none;fill-rule:nonzero;fill:rgb(0%,0%,0%);fill-opacity:1;" d="M 389.5 35.09375 L 384.222656 35.09375 L 384.222656 33.949219 L 385.671875 33.949219 L 383.191406 30.539062 L 380.699219 33.949219 L 382.179688 33.949219 L 382.179688 35.09375 L 377.84375 35.09375 L 377.84375 33.949219 L 379.363281 33.949219 L 382.503906 29.613281 L 379.027344 24.820312 L 377.625 24.820312 L 377.625 23.675781 L 382.722656 23.675781 L 382.722656 24.820312 L 381.359375 24.820312 L 383.753906 28.125 L 386.160156 24.820312 L 384.613281 24.820312 L 384.613281 23.675781 L 389.015625 23.675781 L 389.015625 24.820312 L 387.496094 24.820312 L 384.441406 29.042969 L 388.003906 33.949219 L 389.5 33.949219 Z M 389.5 35.09375 "/>
<path style=" stroke:none;fill-rule:nonzero;fill:rgb(0%,0%,0%);fill-opacity:1;" d="M 396.402344 29.816406 C 396.402344 31.660156 395.910156 33.539062 394.933594 35.445312 C 394.226562 36.796875 392.882812 37.96875 390.902344 38.96875 L 390.902344 37.691406 C 391.914062 37.175781 392.796875 36.191406 393.546875 34.742188 C 393.761719 34.335938 393.925781 33.839844 394.035156 33.261719 C 394.148438 32.683594 394.214844 32.167969 394.234375 31.714844 C 394.257812 31.257812 394.273438 30.625 394.273438 29.816406 L 394.273438 28.277344 C 394.273438 27.472656 394.257812 26.839844 394.234375 26.386719 C 394.214844 25.929688 394.148438 25.410156 394.035156 24.832031 C 393.925781 24.253906 393.761719 23.761719 393.546875 23.351562 C 392.796875 21.902344 391.914062 20.917969 390.902344 20.402344 L 390.902344 19.121094 C 392.882812 20.121094 394.226562 21.296875 394.933594 22.644531 C 395.910156 24.550781 396.402344 26.425781 396.402344 28.277344 Z M 396.402344 29.816406 "/>
<path style=" stroke:none;fill-rule:nonzero;fill:rgb(0%,0%,0%);fill-opacity:1;" d="M 210.035156 33.867188 L 206.3125 33.867188 L 198.703125 26.257812 L 198.703125 32.722656 L 200.746094 32.722656 L 200.746094 33.867188 L 194.484375 33.867188 L 194.484375 32.722656 L 196.527344 32.722656 L 196.527344 18.976562 L 194.484375 18.976562 L 194.484375 17.828125 L 200.746094 17.828125 L 200.746094 18.976562 L 198.703125 18.976562 L 198.703125 25.046875 L 205.617188 18.976562 L 203.878906 18.976562 L 203.878906 17.828125 L 209.195312 17.828125 L 209.195312 18.976562 L 207.390625 18.976562 L 200.507812 25.027344 L 208.203125 32.722656 L 210.035156 32.722656 Z M 210.035156 33.867188 "/>
<path style=" stroke:none;fill-rule:nonzero;fill:rgb(0%,0%,0%);fill-opacity:1;" d="M 221.359375 23.796875 C 222.234375 24.910156 222.675781 26.359375 222.675781 28.148438 C 222.675781 29.9375 222.234375 31.390625 221.359375 32.5 C 220.464844 33.617188 219.316406 34.171875 217.902344 34.171875 C 217.023438 34.171875 216.285156 34.003906 215.6875 33.667969 C 215.070312 33.328125 214.574219 32.800781 214.207031 32.082031 L 214.207031 37.292969 L 216.078125 37.292969 L 216.078125 38.4375 L 210.339844 38.4375 L 210.339844 37.292969 L 212.230469 37.292969 L 212.230469 23.59375 L 210.339844 23.59375 L 210.339844 22.449219 L 214.207031 22.449219 L 214.207031 24.234375 C 214.574219 23.515625 215.070312 22.988281 215.6875 22.648438 C 216.285156 22.3125 217.023438 22.144531 217.902344 22.144531 C 219.316406 22.144531 220.464844 22.695312 221.359375 23.796875 Z M 219.601562 31.738281 C 220.109375 30.914062 220.363281 29.714844 220.363281 28.148438 C 220.363281 26.578125 220.109375 25.390625 219.601562 24.589844 C 219.070312 23.78125 218.304688 23.375 217.289062 23.375 C 216.308594 23.375 215.546875 23.734375 215 24.453125 C 214.46875 25.199219 214.207031 26.246094 214.207031 27.59375 L 214.207031 28.722656 C 214.207031 30.097656 214.46875 31.144531 215 31.863281 C 215.527344 32.582031 216.289062 32.941406 217.289062 32.941406 C 218.304688 32.941406 219.070312 32.539062 219.601562 31.738281 Z M 219.601562 31.738281 "/>
<path style=" stroke:none;fill-rule:nonzero;fill:rgb(0%,0%,0%);fill-opacity:1;" d="M 264.785156 24.625 L 262.226562 24.625 L 262.226562 23.28125 C 261.976562 23.792969 261.664062 24.175781 261.28125 24.433594 C 260.890625 24.703125 260.445312 24.835938 259.933594 24.835938 C 259.082031 24.835938 258.460938 24.59375 258.074219 24.109375 C 257.671875 23.621094 257.472656 22.871094 257.472656 21.859375 L 257.472656 17.78125 L 256.277344 17.78125 L 256.277344 17.019531 L 258.789062 17.019531 L 258.789062 21.449219 C 258.789062 22.378906 258.90625 23.011719 259.144531 23.347656 C 259.363281 23.691406 259.765625 23.863281 260.347656 23.863281 C 260.949219 23.863281 261.414062 23.640625 261.738281 23.195312 C 262.0625 22.742188 262.226562 22.09375 262.226562 21.238281 L 262.226562 17.78125 L 261.082031 17.78125 L 261.082031 17.019531 L 263.542969 17.019531 L 263.542969 23.863281 L 264.785156 23.863281 Z M 264.785156 24.625 "/>
<path style=" stroke:none;fill-rule:nonzero;fill:rgb(0%,0%,0%);fill-opacity:1;" d="M 270.769531 27.203125 C 269.457031 26.546875 268.566406 25.765625 268.085938 24.863281 C 267.417969 23.574219 267.085938 22.320312 267.085938 21.105469 L 267.085938 20.082031 C 267.085938 18.867188 267.417969 17.617188 268.085938 16.332031 C 268.566406 15.421875 269.457031 14.640625 270.769531 13.984375 L 270.769531 14.832031 C 270.101562 15.164062 269.511719 15.820312 268.996094 16.796875 C 268.789062 17.199219 268.65625 17.648438 268.59375 18.144531 C 268.535156 18.640625 268.507812 19.289062 268.507812 20.082031 L 268.507812 21.105469 C 268.507812 21.902344 268.535156 22.546875 268.59375 23.042969 C 268.65625 23.539062 268.789062 23.988281 268.996094 24.386719 C 269.511719 25.367188 270.101562 26.023438 270.769531 26.355469 Z M 270.769531 27.203125 "/>
<path style=" stroke:none;fill-rule:nonzero;fill:rgb(0%,0%,0%);fill-opacity:1;" d="M 279.640625 24.625 L 276.117188 24.625 L 276.117188 23.863281 L 277.09375 23.863281 L 275.429688 21.589844 L 273.769531 23.863281 L 274.753906 23.863281 L 274.753906 24.625 L 271.871094 24.625 L 271.871094 23.863281 L 272.882812 23.863281 L 274.972656 20.980469 L 272.664062 17.78125 L 271.71875 17.78125 L 271.71875 17.019531 L 275.125 17.019531 L 275.125 17.78125 L 274.21875 17.78125 L 275.8125 19.976562 L 277.40625 17.78125 L 276.386719 17.78125 L 276.386719 17.019531 L 279.316406 17.019531 L 279.316406 17.78125 L 278.304688 17.78125 L 276.269531 20.597656 L 278.636719 23.863281 L 279.640625 23.863281 Z M 279.640625 24.625 "/>
<path style=" stroke:none;fill-rule:nonzero;fill:rgb(0%,0%,0%);fill-opacity:1;" d="M 286.75 18.222656 L 286.167969 19.175781 L 283.875 17.753906 L 284.046875 20.300781 L 282.882812 20.300781 L 283.054688 17.753906 L 280.765625 19.175781 L 280.183594 18.222656 L 282.644531 17.074219 L 280.183594 15.949219 L 280.765625 14.996094 L 283.054688 16.417969 L 282.882812 13.847656 L 284.046875 13.847656 L 283.875 16.417969 L 286.167969 14.996094 L 286.75 15.949219 L 284.289062 17.074219 Z M 286.75 18.222656 "/>
<path style=" stroke:none;fill-rule:nonzero;fill:rgb(0%,0%,0%);fill-opacity:1;" d="M 290.367188 23.003906 C 290.324219 23.8125 290.132812 24.507812 289.804688 25.09375 C 289.445312 25.679688 288.921875 26.1875 288.230469 26.621094 L 287.65625 26.046875 C 288.097656 25.71875 288.429688 25.332031 288.660156 24.894531 C 288.863281 24.441406 288.964844 23.898438 288.964844 23.261719 L 288.964844 23.003906 Z M 290.367188 23.003906 "/>
<path style=" stroke:none;fill-rule:nonzero;fill:rgb(0%,0%,0%);fill-opacity:1;" d="M 299.875 24.625 L 296.351562 24.625 L 296.351562 23.863281 L 297.328125 23.863281 L 295.667969 21.589844 L 294.003906 23.863281 L 294.988281 23.863281 L 294.988281 24.625 L 292.105469 24.625 L 292.105469 23.863281 L 293.117188 23.863281 L 295.207031 20.980469 L 292.898438 17.78125 L 291.953125 17.78125 L 291.953125 17.019531 L 295.359375 17.019531 L 295.359375 17.78125 L 294.453125 17.78125 L 296.046875 19.976562 L 297.640625 17.78125 L 296.621094 17.78125 L 296.621094 17.019531 L 299.550781 17.019531 L 299.550781 17.78125 L 298.539062 17.78125 L 296.507812 20.597656 L 298.875 23.863281 L 299.875 23.863281 Z M 299.875 24.625 "/>
<path style=" stroke:none;fill-rule:nonzero;fill:rgb(0%,0%,0%);fill-opacity:1;" d="M 304.472656 21.105469 C 304.472656 22.339844 304.144531 23.59375 303.492188 24.863281 C 303.027344 25.761719 302.132812 26.539062 300.808594 27.203125 L 300.808594 26.355469 C 301.480469 26.011719 302.070312 25.355469 302.574219 24.386719 C 302.71875 24.117188 302.828125 23.785156 302.898438 23.40625 C 302.976562 23.019531 303.019531 22.675781 303.03125 22.375 C 303.046875 22.066406 303.050781 21.644531 303.050781 21.105469 L 303.050781 20.082031 C 303.050781 19.542969 303.046875 19.121094 303.03125 18.824219 C 303.019531 18.515625 302.976562 18.171875 302.898438 17.792969 C 302.828125 17.40625 302.71875 17.074219 302.574219 16.796875 C 302.070312 15.832031 301.480469 15.175781 300.808594 14.832031 L 300.808594 13.984375 C 302.132812 14.644531 303.027344 15.429688 303.492188 16.332031 C 304.144531 17.597656 304.472656 18.847656 304.472656 20.082031 Z M 304.472656 21.105469 "/>
<path style=" stroke:none;fill-rule:nonzero;fill:rgb(0%,0%,0%);fill-opacity:1;" d="M 11.878906 2.519531 L 11 2.519531 L 11 0.847656 L 7.859375 0.847656 L 7.859375 9.929688 L 9.226562 9.929688 L 9.226562 10.691406 L 5.046875 10.691406 L 5.046875 9.929688 L 6.410156 9.929688 L 6.410156 0.847656 L 3.277344 0.847656 L 3.277344 2.519531 L 2.390625 2.519531 L 2.390625 0 L 11.878906 0 Z M 11.878906 2.519531 "/>
<path style=" stroke:none;fill-rule:nonzero;fill:rgb(0%,0%,0%);fill-opacity:1;" d="M 20.335938 10.691406 L 17.847656 10.691406 L 17.847656 9.871094 C 17.546875 10.234375 17.210938 10.492188 16.835938 10.644531 C 16.445312 10.816406 16.003906 10.902344 15.507812 10.902344 C 14.652344 10.902344 13.984375 10.675781 13.492188 10.222656 C 12.996094 9.773438 12.75 9.164062 12.75 8.402344 C 12.75 7.597656 13.03125 6.988281 13.597656 6.566406 C 14.175781 6.144531 14.976562 5.929688 16.003906 5.929688 L 17.847656 5.929688 L 17.847656 5.402344 C 17.847656 4.824219 17.667969 4.378906 17.320312 4.066406 C 16.96875 3.742188 16.476562 3.578125 15.839844 3.578125 C 15.292969 3.578125 14.878906 3.703125 14.589844 3.941406 C 14.277344 4.179688 14.085938 4.53125 14.007812 5.003906 L 13.332031 5.003906 L 13.332031 3.464844 C 13.769531 3.28125 14.214844 3.136719 14.667969 3.027344 C 15.070312 2.925781 15.488281 2.875 15.925781 2.875 C 16.96875 2.875 17.78125 3.136719 18.351562 3.65625 C 18.898438 4.1875 19.171875 4.945312 19.171875 5.9375 L 19.171875 9.929688 L 20.335938 9.929688 Z M 17.847656 8.304688 L 17.847656 6.691406 L 16.148438 6.691406 C 15.503906 6.691406 15.015625 6.832031 14.6875 7.113281 C 14.367188 7.398438 14.210938 7.828125 14.210938 8.402344 C 14.210938 8.929688 14.371094 9.351562 14.695312 9.660156 C 15.027344 9.980469 15.464844 10.136719 16.011719 10.136719 C 16.554688 10.136719 17 9.972656 17.351562 9.632812 C 17.679688 9.277344 17.847656 8.835938 17.847656 8.304688 Z M 17.847656 8.304688 "/>
<path style=" stroke:none;fill-rule:nonzero;fill:rgb(0%,0%,0%);fill-opacity:1;" d="M 27.761719 4.972656 L 26.996094 4.972656 C 26.988281 4.605469 26.886719 4.320312 26.691406 4.125 C 26.503906 3.941406 26.230469 3.847656 25.871094 3.847656 C 25.214844 3.847656 24.71875 4.070312 24.390625 4.515625 C 24.039062 4.980469 23.863281 5.628906 23.863281 6.453125 L 23.863281 9.929688 L 25.382812 9.929688 L 25.382812 10.691406 L 21.355469 10.691406 L 21.355469 9.929688 L 22.539062 9.929688 L 22.539062 3.828125 L 21.277344 3.828125 L 21.277344 3.082031 L 23.863281 3.082031 L 23.863281 4.429688 C 24.117188 3.902344 24.449219 3.511719 24.859375 3.253906 C 25.257812 3.003906 25.75 2.875 26.335938 2.875 C 26.550781 2.875 26.777344 2.890625 27.015625 2.921875 L 27.761719 3.0625 Z M 27.761719 4.972656 "/>
<path style=" stroke:none;fill-rule:nonzero;fill:rgb(0%,0%,0%);fill-opacity:1;" d="M 34.136719 7.265625 L 34.136719 6.511719 C 34.136719 5.613281 33.960938 4.917969 33.613281 4.417969 C 33.25 3.9375 32.738281 3.695312 32.085938 3.695312 C 31.410156 3.695312 30.894531 3.964844 30.546875 4.503906 C 30.203125 5.039062 30.03125 5.832031 30.03125 6.882812 C 30.03125 7.914062 30.203125 8.703125 30.546875 9.25 C 30.890625 9.800781 31.402344 10.070312 32.085938 10.070312 C 32.753906 10.070312 33.261719 9.832031 33.613281 9.355469 C 33.960938 8.878906 34.136719 8.179688 34.136719 7.265625 Z M 36.714844 3.847656 L 35.453125 3.847656 L 35.453125 10.527344 C 35.453125 11.601562 35.15625 12.449219 34.566406 13.070312 C 33.949219 13.652344 33.085938 13.945312 31.980469 13.945312 C 31.46875 13.945312 30.992188 13.902344 30.546875 13.8125 C 30.074219 13.722656 29.636719 13.585938 29.230469 13.402344 L 29.230469 11.808594 L 29.917969 11.808594 C 30.003906 12.304688 30.207031 12.664062 30.519531 12.886719 C 30.835938 13.121094 31.292969 13.242188 31.894531 13.242188 C 32.65625 13.242188 33.222656 13.019531 33.59375 12.582031 C 33.957031 12.15625 34.136719 11.46875 34.136719 10.527344 L 34.136719 9.507812 C 33.894531 9.984375 33.566406 10.335938 33.152344 10.558594 C 32.753906 10.785156 32.257812 10.902344 31.671875 10.902344 C 30.738281 10.902344 29.96875 10.527344 29.375 9.785156 C 28.785156 9.039062 28.496094 8.074219 28.496094 6.882812 C 28.496094 5.6875 28.785156 4.71875 29.375 3.980469 C 29.976562 3.242188 30.742188 2.875 31.671875 2.875 C 32.257812 2.875 32.753906 2.988281 33.152344 3.21875 C 33.566406 3.441406 33.894531 3.789062 34.136719 4.265625 L 34.136719 3.082031 L 36.714844 3.082031 Z M 36.714844 3.847656 "/>
<path style=" stroke:none;fill-rule:nonzero;fill:rgb(0%,0%,0%);fill-opacity:1;" d="M 43.542969 6.261719 C 43.507812 5.382812 43.320312 4.714844 42.976562 4.257812 C 42.628906 3.804688 42.132812 3.578125 41.488281 3.578125 C 40.871094 3.578125 40.390625 3.808594 40.046875 4.265625 C 39.695312 4.71875 39.488281 5.382812 39.417969 6.261719 Z M 45.097656 7.027344 L 39.417969 7.027344 L 39.417969 7.082031 C 39.417969 8.121094 39.609375 8.894531 39.992188 9.402344 C 40.378906 9.933594 40.949219 10.195312 41.707031 10.195312 C 42.292969 10.195312 42.769531 10.042969 43.132812 9.738281 C 43.5 9.425781 43.757812 8.976562 43.90625 8.390625 L 44.964844 8.390625 C 44.753906 9.21875 44.363281 9.847656 43.800781 10.273438 C 43.230469 10.691406 42.492188 10.902344 41.574219 10.902344 C 40.460938 10.902344 39.566406 10.535156 38.894531 9.804688 C 38.21875 9.066406 37.882812 8.09375 37.882812 6.882812 C 37.882812 5.6875 38.210938 4.71875 38.875 3.980469 C 39.527344 3.242188 40.402344 2.875 41.488281 2.875 C 42.640625 2.875 43.523438 3.230469 44.144531 3.941406 C 44.765625 4.664062 45.082031 5.6875 45.097656 7.027344 Z M 45.097656 7.027344 "/>
<path style=" stroke:none;fill-rule:nonzero;fill:rgb(0%,0%,0%);fill-opacity:1;" d="M 51.585938 8.90625 C 51.546875 9.589844 51.363281 10.09375 51.03125 10.425781 C 50.671875 10.742188 50.148438 10.902344 49.476562 10.902344 C 48.714844 10.902344 48.175781 10.730469 47.863281 10.394531 C 47.550781 10.03125 47.394531 9.464844 47.394531 8.6875 L 47.394531 3.847656 L 46.242188 3.847656 L 46.242188 3.082031 L 47.394531 3.082031 L 47.394531 0.726562 L 48.714844 0.726562 L 48.714844 3.082031 L 51.195312 3.082031 L 51.195312 3.847656 L 48.714844 3.847656 L 48.714844 8.6875 C 48.714844 9.332031 48.773438 9.742188 48.902344 9.929688 C 49.03125 10.105469 49.261719 10.195312 49.589844 10.195312 C 49.929688 10.195312 50.179688 10.09375 50.34375 9.890625 C 50.492188 9.695312 50.574219 9.363281 50.59375 8.90625 Z M 51.585938 8.90625 "/>
<path style=" stroke:none;fill-rule:nonzero;fill:rgb(0%,0%,0%);fill-opacity:1;" d="M 12.027344 25.277344 L 8.503906 25.277344 L 8.503906 24.511719 L 9.476562 24.511719 L 7.816406 22.238281 L 6.15625 24.511719 L 7.136719 24.511719 L 7.136719 25.277344 L 4.253906 25.277344 L 4.253906 24.511719 L 5.265625 24.511719 L 7.359375 21.628906 L 5.046875 18.429688 L 4.101562 18.429688 L 4.101562 17.667969 L 7.511719 17.667969 L 7.511719 18.429688 L 6.601562 18.429688 L 8.199219 20.625 L 9.792969 18.429688 L 8.769531 18.429688 L 8.769531 17.667969 L 11.699219 17.667969 L 11.699219 18.429688 L 10.6875 18.429688 L 8.65625 21.246094 L 11.023438 24.511719 L 12.027344 24.511719 Z M 12.027344 25.277344 "/>
<path style=" stroke:none;fill-rule:nonzero;fill:rgb(0%,0%,0%);fill-opacity:1;" d="M 19.136719 18.871094 L 18.550781 19.824219 L 16.261719 18.402344 L 16.433594 20.949219 L 15.269531 20.949219 L 15.441406 18.402344 L 13.148438 19.824219 L 12.566406 18.871094 L 15.03125 17.722656 L 12.566406 16.597656 L 13.148438 15.644531 L 15.441406 17.066406 L 15.269531 14.496094 L 16.433594 14.496094 L 16.261719 17.066406 L 18.550781 15.644531 L 19.136719 16.597656 L 16.671875 17.722656 Z M 19.136719 18.871094 "/>
<path style=" stroke:none;fill-rule:nonzero;fill:rgb(0%,0%,0%);fill-opacity:1;" d="M 24.957031 27.851562 C 23.644531 27.195312 22.753906 26.417969 22.277344 25.515625 C 21.605469 24.222656 21.273438 22.96875 21.273438 21.753906 L 21.273438 20.730469 C 21.273438 19.515625 21.605469 18.265625 22.277344 16.980469 C 22.753906 16.070312 23.644531 15.289062 24.957031 14.632812 L 24.957031 15.480469 C 24.289062 15.8125 23.699219 16.46875 23.183594 17.449219 C 22.976562 17.847656 22.84375 18.296875 22.78125 18.792969 C 22.722656 19.289062 22.695312 19.9375 22.695312 20.730469 L 22.695312 21.753906 C 22.695312 22.550781 22.722656 23.195312 22.78125 23.691406 C 22.84375 24.1875 22.976562 24.636719 23.183594 25.035156 C 23.699219 26.015625 24.289062 26.671875 24.957031 27.003906 Z M 24.957031 27.851562 "/>
<path style=" stroke:none;fill-rule:nonzero;fill:rgb(0%,0%,0%);fill-opacity:1;" d="M 31.507812 23.492188 C 31.472656 24.171875 31.285156 24.679688 30.957031 25.007812 C 30.59375 25.324219 30.074219 25.484375 29.398438 25.484375 C 28.636719 25.484375 28.097656 25.316406 27.785156 24.980469 C 27.472656 24.617188 27.316406 24.046875 27.316406 23.269531 L 27.316406 18.429688 L 26.164062 18.429688 L 26.164062 17.667969 L 27.316406 17.667969 L 27.316406 15.308594 L 28.636719 15.308594 L 28.636719 17.667969 L 31.117188 17.667969 L 31.117188 18.429688 L 28.636719 18.429688 L 28.636719 23.269531 C 28.636719 23.914062 28.699219 24.328125 28.828125 24.511719 C 28.953125 24.691406 29.183594 24.777344 29.515625 24.777344 C 29.851562 24.777344 30.101562 24.679688 30.269531 24.472656 C 30.414062 24.277344 30.496094 23.949219 30.515625 23.492188 Z M 31.507812 23.492188 "/>
<path style=" stroke:none;fill-rule:nonzero;fill:rgb(0%,0%,0%);fill-opacity:1;" d="M 36.050781 21.753906 C 36.050781 22.988281 35.722656 24.242188 35.066406 25.515625 C 34.601562 26.410156 33.707031 27.1875 32.386719 27.851562 L 32.386719 27.003906 C 33.058594 26.660156 33.648438 26.003906 34.152344 25.035156 C 34.296875 24.765625 34.402344 24.433594 34.476562 24.054688 C 34.550781 23.667969 34.59375 23.324219 34.609375 23.023438 C 34.621094 22.71875 34.628906 22.292969 34.628906 21.753906 L 34.628906 20.730469 C 34.628906 20.191406 34.621094 19.773438 34.609375 19.472656 C 34.59375 19.164062 34.550781 18.824219 34.476562 18.441406 C 34.402344 18.054688 34.296875 17.722656 34.152344 17.449219 C 33.648438 16.480469 33.058594 15.824219 32.386719 15.480469 L 32.386719 14.632812 C 33.707031 15.296875 34.601562 16.078125 35.066406 16.980469 C 35.722656 18.246094 36.050781 19.496094 36.050781 20.730469 Z M 36.050781 21.753906 "/>
<path style=" stroke:none;fill-rule:nonzero;fill:rgb(0%,0%,0%);fill-opacity:1;" d="M 79.917969 46.117188 L 89.339844 46.117188 L 89.339844 47.976562 L 79.917969 47.976562 Z M 79.917969 46.117188 "/>
<path style=" stroke:none;fill-rule:nonzero;fill:rgb(0%,0%,0%);fill-opacity:1;" d="M 126.675781 26.644531 L 123.152344 26.644531 L 123.152344 25.882812 L 124.125 25.882812 L 122.464844 23.609375 L 120.804688 25.882812 L 121.789062 25.882812 L 121.789062 26.644531 L 118.90625 26.644531 L 118.90625 25.882812 L 119.917969 25.882812 L 122.007812 23 L 119.699219 19.800781 L 118.753906 19.800781 L 118.753906 19.039062 L 122.160156 19.039062 L 122.160156 19.800781 L 121.253906 19.800781 L 122.847656 21.996094 L 124.441406 19.800781 L 123.421875 19.800781 L 123.421875 19.039062 L 126.351562 19.039062 L 126.351562 19.800781 L 125.339844 19.800781 L 123.304688 22.617188 L 125.671875 25.882812 L 126.675781 25.882812 Z M 126.675781 26.644531 "/>
<path style=" stroke:none;fill-rule:nonzero;fill:rgb(0%,0%,0%);fill-opacity:1;" d="M 133.785156 20.238281 L 133.203125 21.195312 L 130.910156 19.773438 L 131.082031 22.320312 L 129.917969 22.320312 L 130.089844 19.773438 L 127.800781 21.195312 L 127.21875 20.238281 L 129.679688 19.09375 L 127.21875 17.96875 L 127.800781 17.011719 L 130.089844 18.4375 L 129.917969 15.867188 L 131.082031 15.867188 L 130.910156 18.4375 L 133.203125 17.011719 L 133.785156 17.96875 L 131.320312 19.09375 Z M 133.785156 20.238281 "/>
<path style=" stroke:none;fill-rule:nonzero;fill:rgb(0%,0%,0%);fill-opacity:1;" d="M 134.816406 22.160156 L 138.480469 22.160156 L 138.480469 23.277344 L 134.816406 23.277344 Z M 134.816406 22.160156 "/>
<path style=" stroke:none;fill-rule:nonzero;fill:rgb(0%,0%,0%);fill-opacity:1;" d="M 147.203125 26.644531 L 143.679688 26.644531 L 143.679688 25.882812 L 144.652344 25.882812 L 142.992188 23.609375 L 141.332031 25.882812 L 142.3125 25.882812 L 142.3125 26.644531 L 139.429688 26.644531 L 139.429688 25.882812 L 140.441406 25.882812 L 142.535156 23 L 140.222656 19.800781 L 139.277344 19.800781 L 139.277344 19.039062 L 142.6875 19.039062 L 142.6875 19.800781 L 141.78125 19.800781 L 143.375 21.996094 L 144.96875 19.800781 L 143.945312 19.800781 L 143.945312 19.039062 L 146.878906 19.039062 L 146.878906 19.800781 L 145.867188 19.800781 L 143.832031 22.617188 L 146.199219 25.882812 L 147.203125 25.882812 Z M 147.203125 26.644531 "/>
<path style=" stroke:none;fill-rule:nonzero;fill:rgb(0%,0%,0%);fill-opacity:1;" d="M 583.914062 18.464844 C 583.914062 19.304688 583.78125 20.078125 583.511719 20.785156 C 583.238281 21.480469 582.84375 22.082031 582.328125 22.597656 C 581.84375 23.078125 581.308594 23.429688 580.714844 23.660156 C 580.125 23.890625 579.457031 24.011719 578.71875 24.011719 C 577.996094 24.011719 577.328125 23.890625 576.726562 23.660156 C 576.101562 23.40625 575.5625 23.050781 575.113281 22.597656 C 574.570312 22.066406 574.167969 21.460938 573.910156 20.785156 C 573.652344 20.097656 573.527344 19.324219 573.527344 18.464844 C 573.527344 17.625 573.652344 16.851562 573.910156 16.144531 C 574.167969 15.472656 574.570312 14.867188 575.113281 14.332031 C 575.589844 13.851562 576.125 13.496094 576.726562 13.273438 C 577.308594 13.039062 577.976562 12.917969 578.71875 12.917969 C 580.285156 12.917969 581.535156 13.429688 582.472656 14.445312 C 583.429688 15.445312 583.914062 16.785156 583.914062 18.464844 Z M 582.261719 18.464844 C 582.261719 16.882812 581.960938 15.6875 581.363281 14.886719 C 580.773438 14.085938 579.890625 13.683594 578.71875 13.683594 C 577.554688 13.683594 576.671875 14.085938 576.066406 14.886719 C 575.46875 15.703125 575.167969 16.894531 575.167969 18.464844 C 575.167969 20.039062 575.46875 21.230469 576.066406 22.046875 C 576.671875 22.847656 577.554688 23.25 578.71875 23.25 C 579.882812 23.25 580.769531 22.847656 581.375 22.046875 C 581.964844 21.230469 582.261719 20.039062 582.261719 18.464844 Z M 582.261719 18.464844 "/>
<path style=" stroke:none;fill-rule:nonzero;fill:rgb(0%,0%,0%);fill-opacity:1;" d="M 593.613281 23.800781 L 591.054688 23.800781 L 591.054688 22.457031 C 590.804688 22.964844 590.488281 23.351562 590.109375 23.609375 C 589.71875 23.878906 589.269531 24.011719 588.761719 24.011719 C 587.90625 24.011719 587.289062 23.769531 586.902344 23.285156 C 586.5 22.796875 586.300781 22.046875 586.300781 21.035156 L 586.300781 16.957031 L 585.105469 16.957031 L 585.105469 16.195312 L 587.617188 16.195312 L 587.617188 20.621094 C 587.617188 21.554688 587.734375 22.1875 587.96875 22.523438 C 588.191406 22.867188 588.59375 23.039062 589.171875 23.039062 C 589.777344 23.039062 590.242188 22.816406 590.566406 22.371094 C 590.890625 21.917969 591.054688 21.265625 591.054688 20.414062 L 591.054688 16.957031 L 589.90625 16.957031 L 589.90625 16.195312 L 592.371094 16.195312 L 592.371094 23.039062 L 593.613281 23.039062 Z M 593.613281 23.800781 "/>
<path style=" stroke:none;fill-rule:nonzero;fill:rgb(0%,0%,0%);fill-opacity:1;" d="M 599.933594 22.015625 C 599.894531 22.699219 599.710938 23.207031 599.378906 23.535156 C 599.015625 23.851562 598.496094 24.011719 597.824219 24.011719 C 597.058594 24.011719 596.519531 23.84375 596.210938 23.507812 C 595.898438 23.144531 595.742188 22.574219 595.742188 21.796875 L 595.742188 16.957031 L 594.585938 16.957031 L 594.585938 16.195312 L 595.742188 16.195312 L 595.742188 13.835938 L 597.058594 13.835938 L 597.058594 16.195312 L 599.542969 16.195312 L 599.542969 16.957031 L 597.058594 16.957031 L 597.058594 21.796875 C 597.058594 22.441406 597.121094 22.855469 597.25 23.039062 C 597.378906 23.21875 597.605469 23.304688 597.9375 23.304688 C 598.273438 23.304688 598.527344 23.207031 598.691406 23 C 598.839844 22.804688 598.921875 22.476562 598.941406 22.015625 Z M 599.933594 22.015625 "/>
<path style=" stroke:none;fill-rule:nonzero;fill:rgb(0%,0%,0%);fill-opacity:1;" d="M 607.808594 17.089844 C 608.390625 17.832031 608.683594 18.796875 608.683594 19.992188 C 608.683594 21.183594 608.390625 22.152344 607.808594 22.894531 C 607.207031 23.640625 606.441406 24.011719 605.507812 24.011719 C 604.917969 24.011719 604.425781 23.898438 604.027344 23.667969 C 603.609375 23.445312 603.285156 23.09375 603.042969 22.617188 L 603.042969 26.09375 L 604.285156 26.09375 L 604.285156 26.847656 L 600.464844 26.847656 L 600.464844 26.09375 L 601.726562 26.09375 L 601.726562 16.957031 L 600.464844 16.957031 L 600.464844 16.195312 L 603.042969 16.195312 L 603.042969 17.378906 C 603.285156 16.898438 603.609375 16.550781 604.027344 16.328125 C 604.425781 16.097656 604.917969 15.984375 605.507812 15.984375 C 606.441406 15.984375 607.207031 16.355469 607.808594 17.089844 Z M 606.632812 22.378906 C 606.976562 21.832031 607.148438 21.039062 607.148438 19.992188 C 607.148438 18.941406 606.976562 18.152344 606.632812 17.617188 C 606.28125 17.078125 605.769531 16.804688 605.09375 16.804688 C 604.4375 16.804688 603.929688 17.046875 603.566406 17.53125 C 603.21875 18.027344 603.042969 18.722656 603.042969 19.621094 L 603.042969 20.375 C 603.042969 21.292969 603.21875 21.988281 603.566406 22.464844 C 603.917969 22.941406 604.425781 23.179688 605.09375 23.179688 C 605.769531 23.179688 606.28125 22.914062 606.632812 22.378906 Z M 606.632812 22.378906 "/>
<path style=" stroke:none;fill-rule:nonzero;fill:rgb(0%,0%,0%);fill-opacity:1;" d="M 618.320312 23.800781 L 615.761719 23.800781 L 615.761719 22.457031 C 615.511719 22.964844 615.199219 23.351562 614.816406 23.609375 C 614.425781 23.878906 613.976562 24.011719 613.46875 24.011719 C 612.617188 24.011719 611.996094 23.769531 611.609375 23.285156 C 611.207031 22.796875 611.007812 22.046875 611.007812 21.035156 L 611.007812 16.957031 L 609.8125 16.957031 L 609.8125 16.195312 L 612.324219 16.195312 L 612.324219 20.621094 C 612.324219 21.554688 612.441406 22.1875 612.675781 22.523438 C 612.898438 22.867188 613.300781 23.039062 613.878906 23.039062 C 614.484375 23.039062 614.949219 22.816406 615.273438 22.371094 C 615.597656 21.917969 615.761719 21.265625 615.761719 20.414062 L 615.761719 16.957031 L 614.617188 16.957031 L 614.617188 16.195312 L 617.078125 16.195312 L 617.078125 23.039062 L 618.320312 23.039062 Z M 618.320312 23.800781 "/>
<g clip-path="url(#clip5)" clip-rule="nonzero">
<path style=" stroke:none;fill-rule:nonzero;fill:rgb(0%,0%,0%);fill-opacity:1;" d="M 624.640625 22.015625 C 624.601562 22.699219 624.414062 23.207031 624.085938 23.535156 C 623.722656 23.851562 623.203125 24.011719 622.527344 24.011719 C 621.765625 24.011719 621.226562 23.84375 620.914062 23.507812 C 620.601562 23.144531 620.449219 22.574219 620.449219 21.796875 L 620.449219 16.957031 L 619.292969 16.957031 L 619.292969 16.195312 L 620.449219 16.195312 L 620.449219 13.835938 L 621.765625 13.835938 L 621.765625 16.195312 L 624.246094 16.195312 L 624.246094 16.957031 L 621.765625 16.957031 L 621.765625 21.796875 C 621.765625 22.441406 621.828125 22.855469 621.957031 23.039062 C 622.082031 23.21875 622.3125 23.304688 622.644531 23.304688 C 622.980469 23.304688 623.230469 23.207031 623.398438 23 C 623.542969 22.804688 623.625 22.476562 623.644531 22.015625 Z M 624.640625 22.015625 "/>
</g>
<path style="fill:none;stroke-width:1.0287;stroke-linecap:butt;stroke-linejoin:miter;stroke:rgb(0%,0%,0%);stroke-opacity:1;stroke-miterlimit:4;" d="M 467.765625 4.609375 L 565.425781 4.609375 L 565.425781 53.441406 L 467.765625 53.441406 Z M 467.765625 4.609375 "/>
<path style=" stroke:none;fill-rule:nonzero;fill:rgb(0%,0%,0%);fill-opacity:1;" d="M 480.179688 29.960938 C 480.179688 31.265625 479.757812 32.242188 478.914062 32.898438 C 478.089844 33.566406 476.851562 33.898438 475.195312 33.898438 C 474.453125 33.898438 473.703125 33.820312 472.945312 33.664062 C 472.152344 33.519531 471.371094 33.296875 470.601562 32.992188 L 470.601562 29.929688 L 471.632812 29.929688 C 471.640625 30.953125 471.9375 31.707031 472.523438 32.195312 C 473.085938 32.6875 473.9375 32.929688 475.085938 32.929688 C 476.136719 32.929688 476.949219 32.722656 477.523438 32.304688 C 478.085938 31.859375 478.367188 31.238281 478.367188 30.445312 C 478.367188 29.789062 478.195312 29.289062 477.851562 28.945312 C 477.527344 28.601562 476.8125 28.265625 475.710938 27.929688 L 473.945312 27.398438 C 472.683594 27.015625 471.777344 26.53125 471.226562 25.945312 C 470.695312 25.375 470.429688 24.570312 470.429688 23.539062 C 470.429688 22.394531 470.835938 21.507812 471.648438 20.882812 C 472.460938 20.257812 473.601562 19.945312 475.070312 19.945312 C 475.652344 19.945312 476.335938 20.015625 477.117188 20.148438 C 477.824219 20.265625 478.617188 20.457031 479.492188 20.726562 L 479.492188 23.601562 L 478.476562 23.601562 C 478.390625 22.675781 478.074219 21.984375 477.523438 21.523438 C 476.992188 21.109375 476.183594 20.898438 475.101562 20.898438 C 474.132812 20.898438 473.414062 21.097656 472.945312 21.492188 C 472.433594 21.847656 472.179688 22.40625 472.179688 23.164062 C 472.179688 23.8125 472.371094 24.316406 472.757812 24.679688 C 473.121094 25.054688 473.90625 25.421875 475.117188 25.773438 L 476.773438 26.273438 C 477.992188 26.640625 478.867188 27.109375 479.398438 27.679688 C 479.917969 28.253906 480.179688 29.015625 480.179688 29.960938 Z M 480.179688 29.960938 "/>
<path style=" stroke:none;fill-rule:nonzero;fill:rgb(0%,0%,0%);fill-opacity:1;" d="M 492.726562 33.632812 L 489.492188 33.632812 L 489.492188 31.929688 C 489.1875 32.578125 488.796875 33.066406 488.320312 33.398438 C 487.820312 33.730469 487.25 33.898438 486.617188 33.898438 C 485.542969 33.898438 484.761719 33.597656 484.273438 32.992188 C 483.773438 32.378906 483.523438 31.429688 483.523438 30.148438 L 483.523438 25.007812 L 482.023438 25.007812 L 482.023438 24.054688 L 485.179688 24.054688 L 485.179688 29.632812 C 485.179688 30.800781 485.324219 31.597656 485.617188 32.023438 C 485.898438 32.460938 486.402344 32.679688 487.132812 32.679688 C 487.890625 32.679688 488.476562 32.398438 488.882812 31.835938 C 489.289062 31.265625 489.492188 30.441406 489.492188 29.367188 L 489.492188 25.007812 L 488.054688 25.007812 L 488.054688 24.054688 L 491.148438 24.054688 L 491.148438 32.679688 L 492.726562 32.679688 Z M 492.726562 33.632812 "/>
<path style=" stroke:none;fill-rule:nonzero;fill:rgb(0%,0%,0%);fill-opacity:1;" d="M 502.238281 26.429688 L 501.269531 26.429688 C 501.257812 25.972656 501.128906 25.617188 500.878906 25.367188 C 500.648438 25.128906 500.304688 25.007812 499.847656 25.007812 C 499.023438 25.007812 498.402344 25.296875 497.988281 25.867188 C 497.539062 26.441406 497.316406 27.253906 497.316406 28.304688 L 497.316406 32.679688 L 499.238281 32.679688 L 499.238281 33.632812 L 494.160156 33.632812 L 494.160156 32.679688 L 495.660156 32.679688 L 495.660156 24.992188 L 494.082031 24.992188 L 494.082031 24.054688 L 497.316406 24.054688 L 497.316406 25.757812 C 497.636719 25.09375 498.058594 24.597656 498.582031 24.273438 C 499.082031 23.960938 499.699219 23.804688 500.441406 23.804688 C 500.710938 23.804688 500.992188 23.820312 501.285156 23.851562 L 502.238281 24.039062 Z M 502.238281 26.429688 "/>
<path style=" stroke:none;fill-rule:nonzero;fill:rgb(0%,0%,0%);fill-opacity:1;" d="M 511.058594 26.429688 L 510.089844 26.429688 C 510.078125 25.972656 509.949219 25.617188 509.699219 25.367188 C 509.46875 25.128906 509.125 25.007812 508.667969 25.007812 C 507.84375 25.007812 507.222656 25.296875 506.808594 25.867188 C 506.359375 26.441406 506.136719 27.253906 506.136719 28.304688 L 506.136719 32.679688 L 508.058594 32.679688 L 508.058594 33.632812 L 502.980469 33.632812 L 502.980469 32.679688 L 504.480469 32.679688 L 504.480469 24.992188 L 502.902344 24.992188 L 502.902344 24.054688 L 506.136719 24.054688 L 506.136719 25.757812 C 506.457031 25.09375 506.878906 24.597656 507.402344 24.273438 C 507.902344 23.960938 508.519531 23.804688 509.261719 23.804688 C 509.53125 23.804688 509.8125 23.820312 510.105469 23.851562 L 511.058594 24.039062 Z M 511.058594 26.429688 "/>
<path style=" stroke:none;fill-rule:nonzero;fill:rgb(0%,0%,0%);fill-opacity:1;" d="M 521.242188 28.835938 C 521.242188 30.347656 520.824219 31.570312 519.992188 32.507812 C 519.136719 33.4375 518.007812 33.898438 516.601562 33.898438 C 515.214844 33.898438 514.09375 33.4375 513.242188 32.507812 C 512.398438 31.582031 511.976562 30.359375 511.976562 28.835938 C 511.976562 27.304688 512.390625 26.085938 513.226562 25.179688 C 514.078125 24.265625 515.203125 23.804688 516.601562 23.804688 C 518.007812 23.804688 519.136719 24.265625 519.992188 25.179688 C 520.824219 26.085938 521.242188 27.304688 521.242188 28.835938 Z M 519.304688 28.835938 C 519.304688 27.460938 519.074219 26.429688 518.617188 25.742188 C 518.148438 25.035156 517.476562 24.679688 516.601562 24.679688 C 515.734375 24.679688 515.070312 25.035156 514.601562 25.742188 C 514.140625 26.429688 513.914062 27.460938 513.914062 28.835938 C 513.914062 30.210938 514.140625 31.242188 514.601562 31.929688 C 515.046875 32.648438 515.714844 33.007812 516.601562 33.007812 C 517.476562 33.007812 518.148438 32.660156 518.617188 31.960938 C 519.074219 31.265625 519.304688 30.222656 519.304688 28.835938 Z M 519.304688 28.835938 "/>
<path style=" stroke:none;fill-rule:nonzero;fill:rgb(0%,0%,0%);fill-opacity:1;" d="M 530.195312 29.320312 L 530.195312 28.367188 C 530.195312 27.242188 529.96875 26.367188 529.523438 25.742188 C 529.074219 25.140625 528.433594 24.835938 527.601562 24.835938 C 526.757812 24.835938 526.109375 25.175781 525.664062 25.851562 C 525.234375 26.53125 525.023438 27.523438 525.023438 28.835938 C 525.023438 30.140625 525.234375 31.132812 525.664062 31.820312 C 526.101562 32.507812 526.746094 32.851562 527.601562 32.851562 C 528.445312 32.851562 529.085938 32.554688 529.523438 31.960938 C 529.96875 31.359375 530.195312 30.476562 530.195312 29.320312 Z M 533.445312 25.007812 L 531.851562 25.007812 L 531.851562 33.429688 C 531.851562 34.78125 531.476562 35.84375 530.726562 36.617188 C 529.953125 37.355469 528.871094 37.726562 527.476562 37.726562 C 526.839844 37.726562 526.234375 37.671875 525.664062 37.570312 C 525.078125 37.453125 524.527344 37.277344 524.007812 37.039062 L 524.007812 35.039062 L 524.882812 35.039062 C 524.984375 35.664062 525.234375 36.117188 525.632812 36.398438 C 526.039062 36.6875 526.617188 36.835938 527.367188 36.835938 C 528.324219 36.835938 529.039062 36.558594 529.507812 36.007812 C 529.964844 35.464844 530.195312 34.605469 530.195312 33.429688 L 530.195312 32.132812 C 529.882812 32.738281 529.46875 33.179688 528.960938 33.460938 C 528.449219 33.75 527.824219 33.898438 527.085938 33.898438 C 525.90625 33.898438 524.945312 33.429688 524.195312 32.492188 C 523.453125 31.554688 523.085938 30.335938 523.085938 28.835938 C 523.085938 27.335938 523.453125 26.117188 524.195312 25.179688 C 524.953125 24.265625 525.917969 23.804688 527.085938 23.804688 C 527.824219 23.804688 528.449219 23.945312 528.960938 24.226562 C 529.46875 24.507812 529.882812 24.953125 530.195312 25.554688 L 530.195312 24.054688 L 533.445312 24.054688 Z M 533.445312 25.007812 "/>
<path style=" stroke:none;fill-rule:nonzero;fill:rgb(0%,0%,0%);fill-opacity:1;" d="M 544.457031 33.632812 L 541.316406 33.632812 L 541.316406 32.601562 C 540.929688 33.0625 540.507812 33.382812 540.050781 33.570312 C 539.550781 33.789062 538.988281 33.898438 538.363281 33.898438 C 537.289062 33.898438 536.445312 33.613281 535.832031 33.039062 C 535.207031 32.476562 534.894531 31.71875 534.894531 30.757812 C 534.894531 29.75 535.253906 28.976562 535.972656 28.445312 C 536.691406 27.90625 537.695312 27.632812 538.988281 27.632812 L 541.316406 27.632812 L 541.316406 26.976562 C 541.316406 26.25 541.097656 25.6875 540.660156 25.289062 C 540.210938 24.882812 539.585938 24.679688 538.785156 24.679688 C 538.097656 24.679688 537.574219 24.835938 537.222656 25.148438 C 536.824219 25.441406 536.582031 25.882812 536.488281 26.476562 L 535.628906 26.476562 L 535.628906 24.539062 C 536.179688 24.300781 536.742188 24.113281 537.316406 23.976562 C 537.816406 23.863281 538.339844 23.804688 538.894531 23.804688 C 540.214844 23.804688 541.230469 24.128906 541.941406 24.773438 C 542.628906 25.441406 542.972656 26.398438 542.972656 27.648438 L 542.972656 32.679688 L 544.457031 32.679688 Z M 541.316406 30.617188 L 541.316406 28.601562 L 539.175781 28.601562 C 538.363281 28.601562 537.746094 28.78125 537.332031 29.132812 C 536.933594 29.488281 536.738281 30.03125 536.738281 30.757812 C 536.738281 31.425781 536.941406 31.953125 537.347656 32.335938 C 537.761719 32.734375 538.316406 32.929688 539.003906 32.929688 C 539.679688 32.929688 540.242188 32.722656 540.691406 32.304688 C 541.105469 31.847656 541.316406 31.285156 541.316406 30.617188 Z M 541.316406 30.617188 "/>
<path style=" stroke:none;fill-rule:nonzero;fill:rgb(0%,0%,0%);fill-opacity:1;" d="M 552.238281 31.382812 C 552.195312 32.25 551.960938 32.890625 551.535156 33.304688 C 551.085938 33.699219 550.433594 33.898438 549.582031 33.898438 C 548.621094 33.898438 547.945312 33.683594 547.550781 33.257812 C 547.164062 32.8125 546.972656 32.09375 546.972656 31.101562 L 546.972656 25.007812 L 545.503906 25.007812 L 545.503906 24.054688 L 546.972656 24.054688 L 546.972656 21.085938 L 548.628906 21.085938 L 548.628906 24.054688 L 551.738281 24.054688 L 551.738281 25.007812 L 548.628906 25.007812 L 548.628906 31.101562 C 548.628906 31.914062 548.707031 32.441406 548.863281 32.679688 C 549.027344 32.898438 549.320312 33.007812 549.738281 33.007812 C 550.152344 33.007812 550.464844 32.878906 550.675781 32.617188 C 550.863281 32.367188 550.964844 31.957031 550.988281 31.382812 Z M 552.238281 31.382812 "/>
<path style=" stroke:none;fill-rule:nonzero;fill:rgb(0%,0%,0%);fill-opacity:1;" d="M 560.421875 28.054688 C 560.378906 26.953125 560.144531 26.113281 559.71875 25.539062 C 559.28125 24.96875 558.65625 24.679688 557.84375 24.679688 C 557.0625 24.679688 556.457031 24.972656 556.03125 25.554688 C 555.582031 26.117188 555.316406 26.953125 555.234375 28.054688 Z M 562.375 29.023438 L 555.234375 29.023438 L 555.234375 29.085938 C 555.234375 30.398438 555.472656 31.375 555.953125 32.007812 C 556.441406 32.675781 557.160156 33.007812 558.109375 33.007812 C 558.847656 33.007812 559.445312 32.816406 559.90625 32.429688 C 560.375 32.035156 560.695312 31.472656 560.875 30.742188 L 562.203125 30.742188 C 561.953125 31.785156 561.46875 32.570312 560.75 33.101562 C 560.039062 33.632812 559.109375 33.898438 557.953125 33.898438 C 556.546875 33.898438 555.414062 33.4375 554.5625 32.507812 C 553.71875 31.582031 553.296875 30.359375 553.296875 28.835938 C 553.296875 27.335938 553.710938 26.117188 554.546875 25.179688 C 555.367188 24.265625 556.46875 23.804688 557.84375 23.804688 C 559.289062 23.804688 560.398438 24.253906 561.171875 25.148438 C 561.960938 26.046875 562.363281 27.335938 562.375 29.023438 Z M 562.375 29.023438 "/>
<g clip-path="url(#clip6)" clip-rule="nonzero">
<path style="fill:none;stroke-width:0.75;stroke-linecap:butt;stroke-linejoin:miter;stroke:rgb(0%,0%,0%);stroke-opacity:1;stroke-miterlimit:4;" d="M 565.601562 29.964844 L 620.429688 29.964844 L 617.628906 27.164062 "/>
</g>
<g clip-path="url(#clip7)" clip-rule="nonzero">
<path style="fill:none;stroke-width:0.75;stroke-linecap:butt;stroke-linejoin:miter;stroke:rgb(0%,0%,0%);stroke-opacity:1;stroke-miterlimit:4;" d="M 620.429688 29.964844 L 617.875 32.519531 "/>
</g>
</g>
</svg>
