<?xml version="1.0" encoding="UTF-8"?>
<svg xmlns="http://www.w3.org/2000/svg" xmlns:xlink="http://www.w3.org/1999/xlink" width="801.113708pt" height="199.456863pt" viewBox="0 0 801.113708 199.456863" version="1.1">
<defs>
<clipPath id="clip1">
  <path d="M 660 47 L 801.113281 47 L 801.113281 49 L 660 49 Z M 660 47 "/>
</clipPath>
<clipPath id="clip2">
  <path d="M 780 37 L 801.113281 37 L 801.113281 53 L 780 53 Z M 780 37 "/>
</clipPath>
<clipPath id="clip3">
  <path d="M 780 44 L 801.113281 44 L 801.113281 60 L 780 60 Z M 780 44 "/>
</clipPath>
<clipPath id="clip4">
  <path d="M 160 47 L 727 47 L 727 199.457031 L 160 199.457031 Z M 160 47 "/>
</clipPath>
</defs>
<g id="surface1">
<path style="fill:none;stroke-width:1.13152;stroke-linecap:butt;stroke-linejoin:miter;stroke:rgb(0%,0%,0%);stroke-opacity:1;stroke-miterlimit:4;" d="M 180.886719 47.875 C 180.886719 58.320312 171.980469 66.785156 160.996094 66.785156 C 150.011719 66.785156 141.105469 58.320312 141.105469 47.875 C 141.105469 37.433594 150.011719 28.964844 160.996094 28.964844 C 171.980469 28.964844 180.886719 37.433594 180.886719 47.875 Z M 180.886719 47.875 "/>
<path style="fill:none;stroke-width:1.683779;stroke-linecap:butt;stroke-linejoin:miter;stroke:rgb(0%,0%,0%);stroke-opacity:1;stroke-miterlimit:4;" d="M 260.132812 7.914062 L 419.984375 7.914062 L 419.984375 87.839844 L 260.132812 87.839844 Z M 260.132812 7.914062 "/>
<path style="fill:none;stroke-width:1.683779;stroke-linecap:butt;stroke-linejoin:miter;stroke:rgb(0%,0%,0%);stroke-opacity:1;stroke-miterlimit:4;" d="M 499.507812 7.914062 L 659.359375 7.914062 L 659.359375 87.839844 L 499.507812 87.839844 Z M 499.507812 7.914062 "/>
<path style="fill:none;stroke-width:0.749999;stroke-linecap:butt;stroke-linejoin:miter;stroke:rgb(0%,0%,0%);stroke-opacity:1;stroke-miterlimit:4;" d="M 419.726562 47.875 L 496.6875 47.875 "/>
<path style="fill:none;stroke-width:0.749999;stroke-linecap:butt;stroke-linejoin:miter;stroke:rgb(0%,0%,0%);stroke-opacity:1;stroke-miterlimit:4;" d="M 496.6875 47.875 L 489.613281 40.804688 "/>
<path style="fill:none;stroke-width:0.749999;stroke-linecap:butt;stroke-linejoin:miter;stroke:rgb(0%,0%,0%);stroke-opacity:1;stroke-miterlimit:4;" d="M 496.6875 47.875 L 489.613281 54.949219 "/>
<path style="fill:none;stroke-width:0.749999;stroke-linecap:butt;stroke-linejoin:miter;stroke:rgb(0%,0%,0%);stroke-opacity:1;stroke-miterlimit:4;" d="M 181.171875 47.875 L 258.132812 47.875 "/>
<path style="fill:none;stroke-width:0.749999;stroke-linecap:butt;stroke-linejoin:miter;stroke:rgb(0%,0%,0%);stroke-opacity:1;stroke-miterlimit:4;" d="M 258.132812 47.875 L 251.058594 40.804688 "/>
<path style="fill:none;stroke-width:0.749999;stroke-linecap:butt;stroke-linejoin:miter;stroke:rgb(0%,0%,0%);stroke-opacity:1;stroke-miterlimit:4;" d="M 258.132812 47.875 L 251.058594 54.949219 "/>
<g clip-path="url(#clip1)" clip-rule="nonzero">
<path style="fill:none;stroke-width:1.36263;stroke-linecap:butt;stroke-linejoin:miter;stroke:rgb(0%,0%,0%);stroke-opacity:1;stroke-miterlimit:4;" d="M 660.808594 88.634696 L 800.632812 88.634696 " transform="matrix(1,0,0,0.545471,0,0)"/>
</g>
<g clip-path="url(#clip2)" clip-rule="nonzero">
<path style="fill:none;stroke-width:1.36263;stroke-linecap:butt;stroke-linejoin:miter;stroke:rgb(0%,0%,0%);stroke-opacity:1;stroke-miterlimit:4;" d="M 800.632812 88.634696 L 787.78125 75.787427 " transform="matrix(1,0,0,0.545471,0,0)"/>
</g>
<g clip-path="url(#clip3)" clip-rule="nonzero">
<path style="fill:none;stroke-width:1.36263;stroke-linecap:butt;stroke-linejoin:miter;stroke:rgb(0%,0%,0%);stroke-opacity:1;stroke-miterlimit:4;" d="M 800.632812 88.634696 L 787.78125 101.481965 " transform="matrix(1,0,0,0.545471,0,0)"/>
</g>
<path style="fill:none;stroke-width:1.36263;stroke-linecap:butt;stroke-linejoin:miter;stroke:rgb(0%,0%,0%);stroke-opacity:1;stroke-miterlimit:4;" d="M 0 87.768186 L 139.824219 87.768186 " transform="matrix(1,0,0,0.545471,0,0)"/>
<path style="fill:none;stroke-width:1.36263;stroke-linecap:butt;stroke-linejoin:miter;stroke:rgb(0%,0%,0%);stroke-opacity:1;stroke-miterlimit:4;" d="M 139.824219 87.768186 L 126.976562 74.920917 " transform="matrix(1,0,0,0.545471,0,0)"/>
<path style="fill:none;stroke-width:1.36263;stroke-linecap:butt;stroke-linejoin:miter;stroke:rgb(0%,0%,0%);stroke-opacity:1;stroke-miterlimit:4;" d="M 139.824219 87.768186 L 126.976562 100.622616 " transform="matrix(1,0,0,0.545471,0,0)"/>
<g clip-path="url(#clip4)" clip-rule="nonzero">
<path style="fill:none;stroke-width:0.749999;stroke-linecap:butt;stroke-linejoin:miter;stroke:rgb(0%,0%,0%);stroke-opacity:1;stroke-miterlimit:4;" d="M 160.9375 67.167969 L 160.9375 199.082031 L 726.277344 199.082031 L 726.277344 48.355469 "/>
</g>
<path style="fill:none;stroke-width:1.073343;stroke-linecap:butt;stroke-linejoin:miter;stroke:rgb(0%,0%,0%);stroke-opacity:1;stroke-miterlimit:4;" d="M -177.304687 232.405085 L -67.167969 232.405085 " transform="matrix(0,-1,0.692487,0,0,0)"/>
<path style="fill:none;stroke-width:1.073343;stroke-linecap:butt;stroke-linejoin:miter;stroke:rgb(0%,0%,0%);stroke-opacity:1;stroke-miterlimit:4;" d="M -67.167969 232.405085 L -77.289062 222.28531 " transform="matrix(0,-1,0.692487,0,0,0)"/>
<path style="fill:none;stroke-width:1.073343;stroke-linecap:butt;stroke-linejoin:miter;stroke:rgb(0%,0%,0%);stroke-opacity:1;stroke-miterlimit:4;" d="M -67.167969 232.405085 L -77.289062 242.52486 " transform="matrix(0,-1,0.692487,0,0,0)"/>
<path style=" stroke:none;fill-rule:nonzero;fill:rgb(0%,0%,0%);fill-opacity:1;" d="M 514.203125 30.078125 L 517.4375 30.078125 L 517.4375 34.1875 L 514.203125 34.1875 Z M 515.859375 37.28125 Z M 524.90625 37.75 L 517.78125 47.328125 L 525.265625 57.4375 L 521.453125 57.4375 L 515.71875 49.703125 L 510 57.4375 L 506.171875 57.4375 L 513.828125 47.140625 L 506.828125 37.75 L 510.640625 37.75 L 515.859375 44.765625 L 521.078125 37.75 Z M 524.90625 37.75 "/>
<path style=" stroke:none;fill-rule:nonzero;fill:rgb(0%,0%,0%);fill-opacity:1;" d="M 563.371094 45.375 L 540.761719 45.375 L 540.761719 42.5 L 563.371094 42.5 Z M 563.371094 52.578125 L 540.761719 52.578125 L 540.761719 49.703125 L 563.371094 49.703125 Z M 563.371094 52.578125 "/>
<path style=" stroke:none;fill-rule:nonzero;fill:rgb(0%,0%,0%);fill-opacity:1;" d="M 593.152344 34.5 L 591.449219 34.5 C 591.449219 33.617188 591.199219 32.945312 590.699219 32.484375 C 590.238281 32.039062 589.53125 31.8125 588.574219 31.8125 C 587.375 31.8125 586.527344 32.148438 586.027344 32.8125 C 585.535156 33.492188 585.292969 34.667969 585.292969 36.34375 L 585.292969 38.75 L 590.527344 38.75 L 590.527344 40.625 L 585.292969 40.625 L 585.292969 55.5625 L 589.433594 55.5625 L 589.433594 57.4375 L 578.964844 57.4375 L 578.964844 55.5625 L 582.058594 55.5625 L 582.058594 40.625 L 578.964844 40.625 L 578.964844 38.75 L 582.058594 38.75 L 582.058594 36.40625 C 582.058594 34.324219 582.597656 32.742188 583.683594 31.65625 C 584.785156 30.605469 586.378906 30.078125 588.464844 30.078125 C 589.253906 30.078125 590.046875 30.152344 590.839844 30.296875 C 591.660156 30.445312 592.433594 30.65625 593.152344 30.9375 Z M 593.152344 34.5 "/>
<path style=" stroke:none;fill-rule:nonzero;fill:rgb(0%,0%,0%);fill-opacity:1;" d="M 615.757812 63.78125 C 612.539062 62.164062 610.339844 60.242188 609.164062 58.015625 C 607.527344 54.851562 606.710938 51.777344 606.710938 48.796875 L 606.710938 46.28125 C 606.710938 43.304688 607.527344 40.230469 609.164062 37.0625 C 610.339844 34.835938 612.539062 32.914062 615.757812 31.296875 L 615.757812 33.390625 C 614.121094 34.203125 612.667969 35.8125 611.398438 38.21875 C 610.898438 39.199219 610.574219 40.304688 610.429688 41.53125 C 610.28125 42.75 610.210938 44.335938 610.210938 46.28125 L 610.210938 48.796875 C 610.210938 50.746094 610.28125 52.335938 610.429688 53.5625 C 610.574219 54.78125 610.898438 55.882812 611.398438 56.859375 C 612.667969 59.265625 614.121094 60.875 615.757812 61.6875 Z M 615.757812 63.78125 "/>
<path style=" stroke:none;fill-rule:nonzero;fill:rgb(0%,0%,0%);fill-opacity:1;" d="M 637.539062 57.4375 L 628.898438 57.4375 L 628.898438 55.5625 L 631.273438 55.5625 L 627.210938 49.984375 L 623.132812 55.5625 L 625.554688 55.5625 L 625.554688 57.4375 L 618.460938 57.4375 L 618.460938 55.5625 L 620.945312 55.5625 L 626.085938 48.46875 L 620.398438 40.625 L 618.101562 40.625 L 618.101562 38.75 L 626.445312 38.75 L 626.445312 40.625 L 624.210938 40.625 L 628.132812 46.03125 L 632.070312 40.625 L 629.539062 40.625 L 629.539062 38.75 L 636.742188 38.75 L 636.742188 40.625 L 634.257812 40.625 L 629.257812 47.53125 L 635.085938 55.5625 L 637.539062 55.5625 Z M 637.539062 57.4375 "/>
<path style=" stroke:none;fill-rule:nonzero;fill:rgb(0%,0%,0%);fill-opacity:1;" d="M 648.835938 48.796875 C 648.835938 51.820312 648.03125 54.890625 646.429688 58.015625 C 645.273438 60.222656 643.074219 62.144531 639.835938 63.78125 L 639.835938 61.6875 C 641.492188 60.84375 642.933594 59.234375 644.164062 56.859375 C 644.515625 56.195312 644.78125 55.386719 644.960938 54.4375 C 645.148438 53.492188 645.257812 52.648438 645.289062 51.90625 C 645.328125 51.15625 645.351562 50.121094 645.351562 48.796875 L 645.351562 46.28125 C 645.351562 44.960938 645.328125 43.929688 645.289062 43.1875 C 645.257812 42.4375 645.148438 41.589844 644.960938 40.640625 C 644.78125 39.695312 644.515625 38.886719 644.164062 38.21875 C 642.933594 35.84375 641.492188 34.234375 639.835938 33.390625 L 639.835938 31.296875 C 643.074219 32.933594 645.273438 34.855469 646.429688 37.0625 C 648.03125 40.179688 648.835938 43.25 648.835938 46.28125 Z M 648.835938 48.796875 "/>
<path style=" stroke:none;fill-rule:nonzero;fill:rgb(0%,0%,0%);fill-opacity:1;" d="M 343.789062 55.429688 L 337.695312 55.429688 L 325.242188 42.976562 L 325.242188 53.554688 L 328.585938 53.554688 L 328.585938 55.429688 L 318.335938 55.429688 L 318.335938 53.554688 L 321.679688 53.554688 L 321.679688 31.054688 L 318.335938 31.054688 L 318.335938 29.179688 L 328.585938 29.179688 L 328.585938 31.054688 L 325.242188 31.054688 L 325.242188 40.992188 L 336.554688 31.054688 L 333.710938 31.054688 L 333.710938 29.179688 L 342.414062 29.179688 L 342.414062 31.054688 L 339.460938 31.054688 L 328.195312 40.960938 L 340.789062 53.554688 L 343.789062 53.554688 Z M 343.789062 55.429688 "/>
<path style=" stroke:none;fill-rule:nonzero;fill:rgb(0%,0%,0%);fill-opacity:1;" d="M 362.320312 38.945312 C 363.757812 40.769531 364.476562 43.144531 364.476562 46.070312 C 364.476562 49 363.757812 51.375 362.320312 53.195312 C 360.859375 55.019531 358.976562 55.929688 356.664062 55.929688 C 355.226562 55.929688 354.015625 55.652344 353.039062 55.101562 C 352.027344 54.550781 351.21875 53.6875 350.617188 52.507812 L 350.617188 61.039062 L 353.679688 61.039062 L 353.679688 62.914062 L 344.289062 62.914062 L 344.289062 61.039062 L 347.382812 61.039062 L 347.382812 38.617188 L 344.289062 38.617188 L 344.289062 36.742188 L 350.617188 36.742188 L 350.617188 39.664062 C 351.21875 38.488281 352.027344 37.625 353.039062 37.070312 C 354.015625 36.519531 355.226562 36.242188 356.664062 36.242188 C 358.976562 36.242188 360.859375 37.144531 362.320312 38.945312 Z M 359.445312 51.945312 C 360.277344 50.59375 360.695312 48.632812 360.695312 46.070312 C 360.695312 43.5 360.277344 41.554688 359.445312 40.242188 C 358.578125 38.921875 357.320312 38.257812 355.664062 38.257812 C 354.058594 38.257812 352.808594 38.847656 351.914062 40.023438 C 351.046875 41.242188 350.617188 42.957031 350.617188 45.164062 L 350.617188 47.007812 C 350.617188 49.257812 351.046875 50.972656 351.914062 52.148438 C 352.777344 53.328125 354.027344 53.914062 355.664062 53.914062 C 357.320312 53.914062 358.578125 53.257812 359.445312 51.945312 Z M 359.445312 51.945312 "/>
<path style=" stroke:none;fill-rule:nonzero;fill:rgb(0%,0%,0%);fill-opacity:1;" d="M 433.402344 40.304688 L 429.214844 40.304688 L 429.214844 38.101562 C 428.808594 38.9375 428.292969 39.566406 427.667969 39.992188 C 427.03125 40.429688 426.296875 40.648438 425.464844 40.648438 C 424.066406 40.648438 423.050781 40.253906 422.417969 39.460938 C 421.761719 38.660156 421.433594 37.429688 421.433594 35.773438 L 421.433594 29.101562 L 419.480469 29.101562 L 419.480469 27.851562 L 423.589844 27.851562 L 423.589844 35.101562 C 423.589844 36.625 423.78125 37.660156 424.167969 38.210938 C 424.53125 38.773438 425.1875 39.054688 426.136719 39.054688 C 427.125 39.054688 427.886719 38.691406 428.417969 37.960938 C 428.949219 37.222656 429.214844 36.15625 429.214844 34.757812 L 429.214844 29.101562 L 427.339844 29.101562 L 427.339844 27.851562 L 431.371094 27.851562 L 431.371094 39.054688 L 433.402344 39.054688 Z M 433.402344 40.304688 "/>
<path style=" stroke:none;fill-rule:nonzero;fill:rgb(0%,0%,0%);fill-opacity:1;" d="M 443.199219 44.523438 C 441.050781 43.449219 439.589844 42.171875 438.808594 40.695312 C 437.714844 38.582031 437.167969 36.53125 437.167969 34.539062 L 437.167969 32.867188 C 437.167969 30.878906 437.714844 28.832031 438.808594 26.726562 C 439.589844 25.238281 441.050781 23.957031 443.199219 22.882812 L 443.199219 24.273438 C 442.105469 24.816406 441.136719 25.890625 440.292969 27.492188 C 439.957031 28.148438 439.738281 28.882812 439.636719 29.695312 C 439.542969 30.507812 439.496094 31.566406 439.496094 32.867188 L 439.496094 34.539062 C 439.496094 35.84375 439.542969 36.898438 439.636719 37.710938 C 439.738281 38.523438 439.957031 39.257812 440.292969 39.914062 C 441.136719 41.515625 442.105469 42.589844 443.199219 43.132812 Z M 443.199219 44.523438 "/>
<path style=" stroke:none;fill-rule:nonzero;fill:rgb(0%,0%,0%);fill-opacity:1;" d="M 457.71875 40.304688 L 451.953125 40.304688 L 451.953125 39.054688 L 453.546875 39.054688 L 450.828125 35.335938 L 448.109375 39.054688 L 449.71875 39.054688 L 449.71875 40.304688 L 445 40.304688 L 445 39.054688 L 446.65625 39.054688 L 450.078125 34.335938 L 446.296875 29.101562 L 444.75 29.101562 L 444.75 27.851562 L 450.328125 27.851562 L 450.328125 29.101562 L 448.84375 29.101562 L 451.453125 32.695312 L 454.0625 29.101562 L 452.390625 29.101562 L 452.390625 27.851562 L 457.1875 27.851562 L 457.1875 29.101562 L 455.53125 29.101562 L 452.203125 33.710938 L 456.078125 39.054688 L 457.71875 39.054688 Z M 457.71875 40.304688 "/>
<path style=" stroke:none;fill-rule:nonzero;fill:rgb(0%,0%,0%);fill-opacity:1;" d="M 469.355469 29.820312 L 468.402344 31.382812 L 464.652344 29.054688 L 464.933594 33.226562 L 463.027344 33.226562 L 463.308594 29.054688 L 459.558594 31.382812 L 458.605469 29.820312 L 462.636719 27.945312 L 458.605469 26.101562 L 459.558594 24.539062 L 463.308594 26.867188 L 463.027344 22.664062 L 464.933594 22.664062 L 464.652344 26.867188 L 468.402344 24.539062 L 469.355469 26.101562 L 465.324219 27.945312 Z M 469.355469 29.820312 "/>
<path style=" stroke:none;fill-rule:nonzero;fill:rgb(0%,0%,0%);fill-opacity:1;" d="M 475.277344 37.648438 C 475.203125 38.972656 474.894531 40.113281 474.355469 41.070312 C 473.769531 42.027344 472.910156 42.859375 471.777344 43.570312 L 470.839844 42.632812 C 471.558594 42.089844 472.105469 41.460938 472.480469 40.742188 C 472.8125 40.003906 472.980469 39.113281 472.980469 38.070312 L 472.980469 37.648438 Z M 475.277344 37.648438 "/>
<path style=" stroke:none;fill-rule:nonzero;fill:rgb(0%,0%,0%);fill-opacity:1;" d="M 490.839844 40.304688 L 485.074219 40.304688 L 485.074219 39.054688 L 486.667969 39.054688 L 483.949219 35.335938 L 481.230469 39.054688 L 482.839844 39.054688 L 482.839844 40.304688 L 478.121094 40.304688 L 478.121094 39.054688 L 479.777344 39.054688 L 483.199219 34.335938 L 479.417969 29.101562 L 477.871094 29.101562 L 477.871094 27.851562 L 483.449219 27.851562 L 483.449219 29.101562 L 481.964844 29.101562 L 484.574219 32.695312 L 487.183594 29.101562 L 485.511719 29.101562 L 485.511719 27.851562 L 490.308594 27.851562 L 490.308594 29.101562 L 488.652344 29.101562 L 485.324219 33.710938 L 489.199219 39.054688 L 490.839844 39.054688 Z M 490.839844 40.304688 "/>
<path style=" stroke:none;fill-rule:nonzero;fill:rgb(0%,0%,0%);fill-opacity:1;" d="M 498.367188 34.539062 C 498.367188 36.5625 497.828125 38.613281 496.757812 40.695312 C 495.996094 42.164062 494.53125 43.4375 492.367188 44.523438 L 492.367188 43.132812 C 493.46875 42.570312 494.433594 41.496094 495.257812 39.914062 C 495.496094 39.46875 495.671875 38.929688 495.789062 38.304688 C 495.914062 37.671875 495.984375 37.109375 496.007812 36.617188 C 496.027344 36.117188 496.039062 35.425781 496.039062 34.539062 L 496.039062 32.867188 C 496.039062 31.984375 496.027344 31.296875 496.007812 30.804688 C 495.984375 30.304688 495.914062 29.742188 495.789062 29.117188 C 495.671875 28.484375 495.496094 27.941406 495.257812 27.492188 C 494.433594 25.910156 493.46875 24.835938 492.367188 24.273438 L 492.367188 22.882812 C 494.53125 23.96875 495.996094 25.25 496.757812 26.726562 C 497.828125 28.800781 498.367188 30.847656 498.367188 32.867188 Z M 498.367188 34.539062 "/>
<path style=" stroke:none;fill-rule:nonzero;fill:rgb(0%,0%,0%);fill-opacity:1;" d="M 19.445312 4.121094 L 18.007812 4.121094 L 18.007812 1.386719 L 12.867188 1.386719 L 12.867188 16.246094 L 15.101562 16.246094 L 15.101562 17.496094 L 8.257812 17.496094 L 8.257812 16.246094 L 10.492188 16.246094 L 10.492188 1.386719 L 5.367188 1.386719 L 5.367188 4.121094 L 3.914062 4.121094 L 3.914062 -0.00390625 L 19.445312 -0.00390625 Z M 19.445312 4.121094 "/>
<path style=" stroke:none;fill-rule:nonzero;fill:rgb(0%,0%,0%);fill-opacity:1;" d="M 33.289062 17.496094 L 29.210938 17.496094 L 29.210938 16.152344 C 28.71875 16.746094 28.167969 17.167969 27.554688 17.417969 C 26.917969 17.699219 26.195312 17.839844 25.382812 17.839844 C 23.984375 17.839844 22.886719 17.472656 22.085938 16.730469 C 21.273438 15.992188 20.867188 14.996094 20.867188 13.746094 C 20.867188 12.433594 21.328125 11.433594 22.257812 10.746094 C 23.203125 10.050781 24.515625 9.699219 26.195312 9.699219 L 29.210938 9.699219 L 29.210938 8.839844 C 29.210938 7.894531 28.921875 7.164062 28.351562 6.652344 C 27.777344 6.121094 26.96875 5.855469 25.929688 5.855469 C 25.03125 5.855469 24.351562 6.054688 23.882812 6.449219 C 23.371094 6.835938 23.054688 7.414062 22.929688 8.183594 L 21.820312 8.183594 L 21.820312 5.667969 C 22.539062 5.367188 23.265625 5.128906 24.007812 4.949219 C 24.664062 4.785156 25.351562 4.699219 26.070312 4.699219 C 27.777344 4.699219 29.101562 5.128906 30.039062 5.980469 C 30.933594 6.847656 31.382812 8.089844 31.382812 9.714844 L 31.382812 16.246094 L 33.289062 16.246094 Z M 29.210938 13.589844 L 29.210938 10.949219 L 26.429688 10.949219 C 25.375 10.949219 24.578125 11.179688 24.039062 11.636719 C 23.515625 12.105469 23.257812 12.808594 23.257812 13.746094 C 23.257812 14.613281 23.523438 15.300781 24.054688 15.808594 C 24.59375 16.332031 25.3125 16.589844 26.210938 16.589844 C 27.09375 16.589844 27.824219 16.316406 28.398438 15.761719 C 28.9375 15.179688 29.210938 14.457031 29.210938 13.589844 Z M 29.210938 13.589844 "/>
<path style=" stroke:none;fill-rule:nonzero;fill:rgb(0%,0%,0%);fill-opacity:1;" d="M 45.4375 8.136719 L 44.1875 8.136719 C 44.175781 7.535156 44.007812 7.070312 43.6875 6.746094 C 43.382812 6.445312 42.9375 6.292969 42.34375 6.292969 C 41.269531 6.292969 40.460938 6.660156 39.921875 7.386719 C 39.347656 8.148438 39.0625 9.207031 39.0625 10.558594 L 39.0625 16.246094 L 41.546875 16.246094 L 41.546875 17.496094 L 34.953125 17.496094 L 34.953125 16.246094 L 36.890625 16.246094 L 36.890625 6.261719 L 34.828125 6.261719 L 34.828125 5.042969 L 39.0625 5.042969 L 39.0625 7.246094 C 39.476562 6.382812 40.019531 5.742188 40.6875 5.324219 C 41.34375 4.910156 42.148438 4.699219 43.109375 4.699219 C 43.460938 4.699219 43.832031 4.726562 44.21875 4.777344 L 45.4375 5.011719 Z M 45.4375 8.136719 "/>
<path style=" stroke:none;fill-rule:nonzero;fill:rgb(0%,0%,0%);fill-opacity:1;" d="M 55.875 11.886719 L 55.875 10.652344 C 55.875 9.183594 55.585938 8.042969 55.015625 7.230469 C 54.421875 6.441406 53.585938 6.042969 52.515625 6.042969 C 51.410156 6.042969 50.570312 6.488281 50 7.371094 C 49.4375 8.246094 49.15625 9.542969 49.15625 11.261719 C 49.15625 12.949219 49.4375 14.242188 50 15.136719 C 50.5625 16.035156 51.398438 16.480469 52.515625 16.480469 C 53.609375 16.480469 54.441406 16.089844 55.015625 15.308594 C 55.585938 14.527344 55.875 13.386719 55.875 11.886719 Z M 60.09375 6.292969 L 58.03125 6.292969 L 58.03125 17.230469 C 58.03125 18.988281 57.546875 20.375 56.578125 21.386719 C 55.566406 22.34375 54.15625 22.824219 52.34375 22.824219 C 51.507812 22.824219 50.726562 22.75 50 22.605469 C 49.226562 22.457031 48.507812 22.234375 47.84375 21.933594 L 47.84375 19.324219 L 48.96875 19.324219 C 49.113281 20.136719 49.441406 20.722656 49.953125 21.089844 C 50.472656 21.472656 51.222656 21.667969 52.203125 21.667969 C 53.453125 21.667969 54.378906 21.308594 54.984375 20.589844 C 55.578125 19.890625 55.875 18.769531 55.875 17.230469 L 55.875 15.558594 C 55.476562 16.339844 54.941406 16.914062 54.265625 17.277344 C 53.609375 17.652344 52.800781 17.839844 51.84375 17.839844 C 50.3125 17.839844 49.054688 17.230469 48.078125 16.011719 C 47.117188 14.792969 46.640625 13.210938 46.640625 11.261719 C 46.640625 9.304688 47.117188 7.722656 48.078125 6.511719 C 49.066406 5.304688 50.320312 4.699219 51.84375 4.699219 C 52.800781 4.699219 53.609375 4.886719 54.265625 5.261719 C 54.941406 5.628906 55.476562 6.199219 55.875 6.980469 L 55.875 5.042969 L 60.09375 5.042969 Z M 60.09375 6.292969 "/>
<path style=" stroke:none;fill-rule:nonzero;fill:rgb(0%,0%,0%);fill-opacity:1;" d="M 71.269531 10.246094 C 71.214844 8.808594 70.910156 7.714844 70.347656 6.964844 C 69.773438 6.226562 68.960938 5.855469 67.910156 5.855469 C 66.898438 5.855469 66.113281 6.230469 65.550781 6.980469 C 64.976562 7.722656 64.632812 8.808594 64.519531 10.246094 Z M 73.816406 11.496094 L 64.519531 11.496094 L 64.519531 11.589844 C 64.519531 13.289062 64.832031 14.554688 65.457031 15.386719 C 66.089844 16.253906 67.027344 16.683594 68.269531 16.683594 C 69.226562 16.683594 70.003906 16.433594 70.597656 15.933594 C 71.199219 15.425781 71.621094 14.691406 71.863281 13.730469 L 73.597656 13.730469 C 73.253906 15.085938 72.617188 16.113281 71.691406 16.808594 C 70.761719 17.496094 69.550781 17.839844 68.050781 17.839844 C 66.226562 17.839844 64.761719 17.242188 63.660156 16.042969 C 62.554688 14.835938 62.003906 13.242188 62.003906 11.261719 C 62.003906 9.304688 62.542969 7.722656 63.628906 6.511719 C 64.699219 5.304688 66.128906 4.699219 67.910156 4.699219 C 69.792969 4.699219 71.242188 5.285156 72.253906 6.449219 C 73.273438 7.628906 73.792969 9.308594 73.816406 11.496094 Z M 73.816406 11.496094 "/>
<path style=" stroke:none;fill-rule:nonzero;fill:rgb(0%,0%,0%);fill-opacity:1;" d="M 84.4375 14.574219 C 84.375 15.691406 84.070312 16.519531 83.53125 17.058594 C 82.9375 17.578125 82.085938 17.839844 80.984375 17.839844 C 79.734375 17.839844 78.851562 17.5625 78.34375 17.011719 C 77.832031 16.417969 77.578125 15.488281 77.578125 14.214844 L 77.578125 6.292969 L 75.6875 6.292969 L 75.6875 5.042969 L 77.578125 5.042969 L 77.578125 1.183594 L 79.734375 1.183594 L 79.734375 5.042969 L 83.796875 5.042969 L 83.796875 6.292969 L 79.734375 6.292969 L 79.734375 14.214844 C 79.734375 15.269531 79.835938 15.945312 80.046875 16.246094 C 80.253906 16.539062 80.628906 16.683594 81.171875 16.683594 C 81.722656 16.683594 82.132812 16.519531 82.40625 16.183594 C 82.644531 15.863281 82.78125 15.324219 82.8125 14.574219 Z M 84.4375 14.574219 "/>
<path style=" stroke:none;fill-rule:nonzero;fill:rgb(0%,0%,0%);fill-opacity:1;" d="M 19.683594 41.367188 L 13.917969 41.367188 L 13.917969 40.117188 L 15.511719 40.117188 L 12.792969 36.398438 L 10.074219 40.117188 L 11.683594 40.117188 L 11.683594 41.367188 L 6.964844 41.367188 L 6.964844 40.117188 L 8.621094 40.117188 L 12.042969 35.398438 L 8.261719 30.164062 L 6.714844 30.164062 L 6.714844 28.914062 L 12.292969 28.914062 L 12.292969 30.164062 L 10.808594 30.164062 L 13.417969 33.757812 L 16.027344 30.164062 L 14.355469 30.164062 L 14.355469 28.914062 L 19.152344 28.914062 L 19.152344 30.164062 L 17.496094 30.164062 L 14.167969 34.773438 L 18.042969 40.117188 L 19.683594 40.117188 Z M 19.683594 41.367188 "/>
<path style=" stroke:none;fill-rule:nonzero;fill:rgb(0%,0%,0%);fill-opacity:1;" d="M 31.320312 30.882812 L 30.367188 32.445312 L 26.617188 30.117188 L 26.898438 34.289062 L 24.992188 34.289062 L 25.273438 30.117188 L 21.523438 32.445312 L 20.570312 30.882812 L 24.601562 29.007812 L 20.570312 27.164062 L 21.523438 25.601562 L 25.273438 27.929688 L 24.992188 23.726562 L 26.898438 23.726562 L 26.617188 27.929688 L 30.367188 25.601562 L 31.320312 27.164062 L 27.289062 29.007812 Z M 31.320312 30.882812 "/>
<path style=" stroke:none;fill-rule:nonzero;fill:rgb(0%,0%,0%);fill-opacity:1;" d="M 40.851562 45.585938 C 38.703125 44.511719 37.242188 43.234375 36.460938 41.757812 C 35.367188 39.644531 34.820312 37.59375 34.820312 35.601562 L 34.820312 33.929688 C 34.820312 31.941406 35.367188 29.894531 36.460938 27.789062 C 37.242188 26.300781 38.703125 25.019531 40.851562 23.945312 L 40.851562 25.335938 C 39.757812 25.878906 38.789062 26.953125 37.945312 28.554688 C 37.609375 29.210938 37.390625 29.945312 37.289062 30.757812 C 37.195312 31.570312 37.148438 32.628906 37.148438 33.929688 L 37.148438 35.601562 C 37.148438 36.90625 37.195312 37.960938 37.289062 38.773438 C 37.390625 39.585938 37.609375 40.320312 37.945312 40.976562 C 38.789062 42.578125 39.757812 43.652344 40.851562 44.195312 Z M 40.851562 45.585938 "/>
<path style=" stroke:none;fill-rule:nonzero;fill:rgb(0%,0%,0%);fill-opacity:1;" d="M 51.574219 38.445312 C 51.511719 39.5625 51.207031 40.390625 50.667969 40.929688 C 50.074219 41.449219 49.222656 41.710938 48.121094 41.710938 C 46.871094 41.710938 45.988281 41.433594 45.480469 40.882812 C 44.96875 40.289062 44.714844 39.359375 44.714844 38.085938 L 44.714844 30.164062 L 42.824219 30.164062 L 42.824219 28.914062 L 44.714844 28.914062 L 44.714844 25.054688 L 46.871094 25.054688 L 46.871094 28.914062 L 50.933594 28.914062 L 50.933594 30.164062 L 46.871094 30.164062 L 46.871094 38.085938 C 46.871094 39.140625 46.972656 39.816406 47.183594 40.117188 C 47.390625 40.410156 47.765625 40.554688 48.308594 40.554688 C 48.859375 40.554688 49.269531 40.390625 49.542969 40.054688 C 49.78125 39.734375 49.917969 39.195312 49.949219 38.445312 Z M 51.574219 38.445312 "/>
<path style=" stroke:none;fill-rule:nonzero;fill:rgb(0%,0%,0%);fill-opacity:1;" d="M 59.007812 35.601562 C 59.007812 37.625 58.46875 39.675781 57.398438 41.757812 C 56.636719 43.226562 55.171875 44.5 53.007812 45.585938 L 53.007812 44.195312 C 54.109375 43.632812 55.074219 42.558594 55.898438 40.976562 C 56.136719 40.53125 56.3125 39.992188 56.429688 39.367188 C 56.554688 38.734375 56.625 38.171875 56.648438 37.679688 C 56.667969 37.179688 56.679688 36.488281 56.679688 35.601562 L 56.679688 33.929688 C 56.679688 33.046875 56.667969 32.359375 56.648438 31.867188 C 56.625 31.367188 56.554688 30.804688 56.429688 30.179688 C 56.3125 29.546875 56.136719 29.003906 55.898438 28.554688 C 55.074219 26.972656 54.109375 25.898438 53.007812 25.335938 L 53.007812 23.945312 C 55.171875 25.03125 56.636719 26.3125 57.398438 27.789062 C 58.46875 29.863281 59.007812 31.910156 59.007812 33.929688 Z M 59.007812 35.601562 "/>
<path style=" stroke:none;fill-rule:nonzero;fill:rgb(0%,0%,0%);fill-opacity:1;" d="M 130.8125 75.480469 L 146.234375 75.480469 L 146.234375 78.527344 L 130.8125 78.527344 Z M 130.8125 75.480469 "/>
<path style=" stroke:none;fill-rule:nonzero;fill:rgb(0%,0%,0%);fill-opacity:1;" d="M 207.34375 43.609375 L 201.578125 43.609375 L 201.578125 42.359375 L 203.171875 42.359375 L 200.453125 38.640625 L 197.734375 42.359375 L 199.34375 42.359375 L 199.34375 43.609375 L 194.625 43.609375 L 194.625 42.359375 L 196.28125 42.359375 L 199.703125 37.640625 L 195.921875 32.40625 L 194.375 32.40625 L 194.375 31.15625 L 199.953125 31.15625 L 199.953125 32.40625 L 198.46875 32.40625 L 201.078125 36 L 203.6875 32.40625 L 202.015625 32.40625 L 202.015625 31.15625 L 206.8125 31.15625 L 206.8125 32.40625 L 205.15625 32.40625 L 201.828125 37.015625 L 205.703125 42.359375 L 207.34375 42.359375 Z M 207.34375 43.609375 "/>
<path style=" stroke:none;fill-rule:nonzero;fill:rgb(0%,0%,0%);fill-opacity:1;" d="M 218.980469 33.125 L 218.027344 34.6875 L 214.277344 32.359375 L 214.558594 36.53125 L 212.652344 36.53125 L 212.933594 32.359375 L 209.183594 34.6875 L 208.230469 33.125 L 212.261719 31.25 L 208.230469 29.40625 L 209.183594 27.84375 L 212.933594 30.171875 L 212.652344 25.96875 L 214.558594 25.96875 L 214.277344 30.171875 L 218.027344 27.84375 L 218.980469 29.40625 L 214.949219 31.25 Z M 218.980469 33.125 "/>
<path style=" stroke:none;fill-rule:nonzero;fill:rgb(0%,0%,0%);fill-opacity:1;" d="M 220.667969 36.265625 L 226.667969 36.265625 L 226.667969 38.09375 L 220.667969 38.09375 Z M 220.667969 36.265625 "/>
<path style=" stroke:none;fill-rule:nonzero;fill:rgb(0%,0%,0%);fill-opacity:1;" d="M 240.941406 43.609375 L 235.175781 43.609375 L 235.175781 42.359375 L 236.769531 42.359375 L 234.050781 38.640625 L 231.332031 42.359375 L 232.941406 42.359375 L 232.941406 43.609375 L 228.222656 43.609375 L 228.222656 42.359375 L 229.878906 42.359375 L 233.300781 37.640625 L 229.519531 32.40625 L 227.972656 32.40625 L 227.972656 31.15625 L 233.550781 31.15625 L 233.550781 32.40625 L 232.066406 32.40625 L 234.675781 36 L 237.285156 32.40625 L 235.613281 32.40625 L 235.613281 31.15625 L 240.410156 31.15625 L 240.410156 32.40625 L 238.753906 32.40625 L 235.425781 37.015625 L 239.300781 42.359375 L 240.941406 42.359375 Z M 240.941406 43.609375 "/>
<path style=" stroke:none;fill-rule:nonzero;fill:rgb(0%,0%,0%);fill-opacity:1;" d="M 706.484375 33.578125 C 706.484375 34.953125 706.265625 36.21875 705.828125 37.375 C 705.378906 38.511719 704.734375 39.5 703.890625 40.34375 C 703.097656 41.125 702.21875 41.703125 701.25 42.078125 C 700.28125 42.460938 699.191406 42.65625 697.984375 42.65625 C 696.796875 42.65625 695.707031 42.460938 694.71875 42.078125 C 693.695312 41.664062 692.816406 41.085938 692.078125 40.34375 C 691.191406 39.46875 690.535156 38.480469 690.109375 37.375 C 689.691406 36.25 689.484375 34.984375 689.484375 33.578125 C 689.484375 32.203125 689.691406 30.9375 690.109375 29.78125 C 690.535156 28.679688 691.191406 27.6875 692.078125 26.8125 C 692.859375 26.023438 693.738281 25.445312 694.71875 25.078125 C 695.675781 24.695312 696.765625 24.5 697.984375 24.5 C 700.546875 24.5 702.59375 25.335938 704.125 27 C 705.695312 28.636719 706.484375 30.828125 706.484375 33.578125 Z M 703.78125 33.578125 C 703.78125 30.984375 703.289062 29.03125 702.3125 27.71875 C 701.34375 26.40625 699.898438 25.75 697.984375 25.75 C 696.078125 25.75 694.628906 26.40625 693.640625 27.71875 C 692.660156 29.054688 692.171875 31.007812 692.171875 33.578125 C 692.171875 36.152344 692.660156 38.105469 693.640625 39.4375 C 694.628906 40.75 696.078125 41.40625 697.984375 41.40625 C 699.890625 41.40625 701.335938 40.75 702.328125 39.4375 C 703.296875 38.105469 703.78125 36.152344 703.78125 33.578125 Z M 703.78125 33.578125 "/>
<path style=" stroke:none;fill-rule:nonzero;fill:rgb(0%,0%,0%);fill-opacity:1;" d="M 722.359375 42.3125 L 718.171875 42.3125 L 718.171875 40.109375 C 717.765625 40.945312 717.25 41.574219 716.625 42 C 715.988281 42.4375 715.253906 42.65625 714.421875 42.65625 C 713.023438 42.65625 712.007812 42.261719 711.375 41.46875 C 710.71875 40.667969 710.390625 39.4375 710.390625 37.78125 L 710.390625 31.109375 L 708.4375 31.109375 L 708.4375 29.859375 L 712.546875 29.859375 L 712.546875 37.109375 C 712.546875 38.632812 712.738281 39.667969 713.125 40.21875 C 713.488281 40.78125 714.144531 41.0625 715.09375 41.0625 C 716.082031 41.0625 716.84375 40.699219 717.375 39.96875 C 717.90625 39.230469 718.171875 38.164062 718.171875 36.765625 L 718.171875 31.109375 L 716.296875 31.109375 L 716.296875 29.859375 L 720.328125 29.859375 L 720.328125 41.0625 L 722.359375 41.0625 Z M 722.359375 42.3125 "/>
<path style=" stroke:none;fill-rule:nonzero;fill:rgb(0%,0%,0%);fill-opacity:1;" d="M 732.707031 39.390625 C 732.644531 40.507812 732.339844 41.335938 731.800781 41.875 C 731.207031 42.394531 730.355469 42.65625 729.253906 42.65625 C 728.003906 42.65625 727.121094 42.378906 726.613281 41.828125 C 726.101562 41.234375 725.847656 40.304688 725.847656 39.03125 L 725.847656 31.109375 L 723.957031 31.109375 L 723.957031 29.859375 L 725.847656 29.859375 L 725.847656 26 L 728.003906 26 L 728.003906 29.859375 L 732.066406 29.859375 L 732.066406 31.109375 L 728.003906 31.109375 L 728.003906 39.03125 C 728.003906 40.085938 728.105469 40.761719 728.316406 41.0625 C 728.523438 41.355469 728.898438 41.5 729.441406 41.5 C 729.992188 41.5 730.402344 41.335938 730.675781 41 C 730.914062 40.679688 731.050781 40.140625 731.082031 39.390625 Z M 732.707031 39.390625 "/>
<path style=" stroke:none;fill-rule:nonzero;fill:rgb(0%,0%,0%);fill-opacity:1;" d="M 745.59375 31.328125 C 746.550781 32.539062 747.03125 34.121094 747.03125 36.078125 C 747.03125 38.027344 746.550781 39.609375 745.59375 40.828125 C 744.613281 42.046875 743.359375 42.65625 741.828125 42.65625 C 740.867188 42.65625 740.0625 42.46875 739.40625 42.09375 C 738.726562 41.730469 738.191406 41.15625 737.796875 40.375 L 737.796875 46.0625 L 739.828125 46.0625 L 739.828125 47.296875 L 733.578125 47.296875 L 733.578125 46.0625 L 735.640625 46.0625 L 735.640625 31.109375 L 733.578125 31.109375 L 733.578125 29.859375 L 737.796875 29.859375 L 737.796875 31.796875 C 738.191406 31.015625 738.726562 30.445312 739.40625 30.078125 C 740.0625 29.703125 740.867188 29.515625 741.828125 29.515625 C 743.359375 29.515625 744.613281 30.121094 745.59375 31.328125 Z M 743.671875 39.984375 C 744.234375 39.089844 744.515625 37.789062 744.515625 36.078125 C 744.515625 34.359375 744.234375 33.0625 743.671875 32.1875 C 743.097656 31.304688 742.257812 30.859375 741.15625 30.859375 C 740.082031 30.859375 739.25 31.257812 738.65625 32.046875 C 738.082031 32.859375 737.796875 34 737.796875 35.46875 L 737.796875 36.703125 C 737.796875 38.203125 738.082031 39.34375 738.65625 40.125 C 739.226562 40.90625 740.0625 41.296875 741.15625 41.296875 C 742.257812 41.296875 743.097656 40.859375 743.671875 39.984375 Z M 743.671875 39.984375 "/>
<path style=" stroke:none;fill-rule:nonzero;fill:rgb(0%,0%,0%);fill-opacity:1;" d="M 762.800781 42.3125 L 758.613281 42.3125 L 758.613281 40.109375 C 758.207031 40.945312 757.691406 41.574219 757.066406 42 C 756.429688 42.4375 755.695312 42.65625 754.863281 42.65625 C 753.464844 42.65625 752.449219 42.261719 751.816406 41.46875 C 751.160156 40.667969 750.832031 39.4375 750.832031 37.78125 L 750.832031 31.109375 L 748.878906 31.109375 L 748.878906 29.859375 L 752.988281 29.859375 L 752.988281 37.109375 C 752.988281 38.632812 753.179688 39.667969 753.566406 40.21875 C 753.929688 40.78125 754.585938 41.0625 755.535156 41.0625 C 756.523438 41.0625 757.285156 40.699219 757.816406 39.96875 C 758.347656 39.230469 758.613281 38.164062 758.613281 36.765625 L 758.613281 31.109375 L 756.738281 31.109375 L 756.738281 29.859375 L 760.769531 29.859375 L 760.769531 41.0625 L 762.800781 41.0625 Z M 762.800781 42.3125 "/>
<path style=" stroke:none;fill-rule:nonzero;fill:rgb(0%,0%,0%);fill-opacity:1;" d="M 773.144531 39.390625 C 773.082031 40.507812 772.777344 41.335938 772.238281 41.875 C 771.644531 42.394531 770.792969 42.65625 769.691406 42.65625 C 768.441406 42.65625 767.558594 42.378906 767.050781 41.828125 C 766.539062 41.234375 766.285156 40.304688 766.285156 39.03125 L 766.285156 31.109375 L 764.394531 31.109375 L 764.394531 29.859375 L 766.285156 29.859375 L 766.285156 26 L 768.441406 26 L 768.441406 29.859375 L 772.503906 29.859375 L 772.503906 31.109375 L 768.441406 31.109375 L 768.441406 39.03125 C 768.441406 40.085938 768.542969 40.761719 768.753906 41.0625 C 768.960938 41.355469 769.335938 41.5 769.878906 41.5 C 770.429688 41.5 770.839844 41.335938 771.113281 41 C 771.351562 40.679688 771.488281 40.140625 771.519531 39.390625 Z M 773.144531 39.390625 "/>
</g>
</svg>
