<?xml version="1.0" encoding="utf-8" standalone="no"?>
<!DOCTYPE svg PUBLIC "-//W3C//DTD SVG 1.1//EN"
  "http://www.w3.org/Graphics/SVG/1.1/DTD/svg11.dtd">
<!-- Created with matplotlib (https://matplotlib.org/) -->
<svg height="320.4pt" version="1.1" viewBox="0 0 689.76 320.4" width="689.76pt" xmlns="http://www.w3.org/2000/svg" xmlns:xlink="http://www.w3.org/1999/xlink">
 <metadata>
  <rdf:RDF xmlns:cc="http://creativecommons.org/ns#" xmlns:dc="http://purl.org/dc/elements/1.1/" xmlns:rdf="http://www.w3.org/1999/02/22-rdf-syntax-ns#">
   <cc:Work>
    <dc:type rdf:resource="http://purl.org/dc/dcmitype/StillImage"/>
    <dc:date>2021-01-20T13:52:27.524073</dc:date>
    <dc:format>image/svg+xml</dc:format>
    <dc:creator>
     <cc:Agent>
      <dc:title>Matplotlib v3.3.3, https://matplotlib.org/</dc:title>
     </cc:Agent>
    </dc:creator>
   </cc:Work>
  </rdf:RDF>
 </metadata>
 <defs>
  <style type="text/css">*{stroke-linecap:butt;stroke-linejoin:round;}</style>
 </defs>
 <g id="figure_1">
  <g id="patch_1">
   <path d="M 0 320.4 
L 689.76 320.4 
L 689.76 0 
L 0 0 
z
" style="fill:#ffffff;"/>
  </g>
  <g id="axes_1">
   <g id="patch_2">
    <path d="M 86.22 285.156 
L 620.784 285.156 
L 620.784 38.448 
L 86.22 38.448 
z
" style="fill:#ffffff;"/>
   </g>
   <g id="matplotlib.axis_1">
    <g id="xtick_1">
     <g id="line2d_1">
      <defs>
       <path d="M 0 0 
L 0 3.5 
" id="m7e4b176c04" style="stroke:#000000;stroke-width:0.8;"/>
      </defs>
      <g>
       <use style="stroke:#000000;stroke-width:0.8;" x="110.518364" xlink:href="#m7e4b176c04" y="285.156"/>
      </g>
     </g>
     <g id="text_1">
      <!-- −1.00 -->
      <g transform="translate(95.195707 299.754438)scale(0.1 -0.1)">
       <defs>
        <path d="M 10.59375 35.5 
L 73.1875 35.5 
L 73.1875 27.203125 
L 10.59375 27.203125 
z
" id="DejaVuSans-8722"/>
        <path d="M 12.40625 8.296875 
L 28.515625 8.296875 
L 28.515625 63.921875 
L 10.984375 60.40625 
L 10.984375 69.390625 
L 28.421875 72.90625 
L 38.28125 72.90625 
L 38.28125 8.296875 
L 54.390625 8.296875 
L 54.390625 0 
L 12.40625 0 
z
" id="DejaVuSans-49"/>
        <path d="M 10.6875 12.40625 
L 21 12.40625 
L 21 0 
L 10.6875 0 
z
" id="DejaVuSans-46"/>
        <path d="M 31.78125 66.40625 
Q 24.171875 66.40625 20.328125 58.90625 
Q 16.5 51.421875 16.5 36.375 
Q 16.5 21.390625 20.328125 13.890625 
Q 24.171875 6.390625 31.78125 6.390625 
Q 39.453125 6.390625 43.28125 13.890625 
Q 47.125 21.390625 47.125 36.375 
Q 47.125 51.421875 43.28125 58.90625 
Q 39.453125 66.40625 31.78125 66.40625 
z
M 31.78125 74.21875 
Q 44.046875 74.21875 50.515625 64.515625 
Q 56.984375 54.828125 56.984375 36.375 
Q 56.984375 17.96875 50.515625 8.265625 
Q 44.046875 -1.421875 31.78125 -1.421875 
Q 19.53125 -1.421875 13.0625 8.265625 
Q 6.59375 17.96875 6.59375 36.375 
Q 6.59375 54.828125 13.0625 64.515625 
Q 19.53125 74.21875 31.78125 74.21875 
z
" id="DejaVuSans-48"/>
       </defs>
       <use xlink:href="#DejaVuSans-8722"/>
       <use x="83.789062" xlink:href="#DejaVuSans-49"/>
       <use x="147.412109" xlink:href="#DejaVuSans-46"/>
       <use x="179.199219" xlink:href="#DejaVuSans-48"/>
       <use x="242.822266" xlink:href="#DejaVuSans-48"/>
      </g>
     </g>
    </g>
    <g id="xtick_2">
     <g id="line2d_2">
      <g>
       <use style="stroke:#000000;stroke-width:0.8;" x="171.264273" xlink:href="#m7e4b176c04" y="285.156"/>
      </g>
     </g>
     <g id="text_2">
      <!-- −0.75 -->
      <g transform="translate(155.941616 299.754438)scale(0.1 -0.1)">
       <defs>
        <path d="M 8.203125 72.90625 
L 55.078125 72.90625 
L 55.078125 68.703125 
L 28.609375 0 
L 18.3125 0 
L 43.21875 64.59375 
L 8.203125 64.59375 
z
" id="DejaVuSans-55"/>
        <path d="M 10.796875 72.90625 
L 49.515625 72.90625 
L 49.515625 64.59375 
L 19.828125 64.59375 
L 19.828125 46.734375 
Q 21.96875 47.46875 24.109375 47.828125 
Q 26.265625 48.1875 28.421875 48.1875 
Q 40.625 48.1875 47.75 41.5 
Q 54.890625 34.8125 54.890625 23.390625 
Q 54.890625 11.625 47.5625 5.09375 
Q 40.234375 -1.421875 26.90625 -1.421875 
Q 22.3125 -1.421875 17.546875 -0.640625 
Q 12.796875 0.140625 7.71875 1.703125 
L 7.71875 11.625 
Q 12.109375 9.234375 16.796875 8.0625 
Q 21.484375 6.890625 26.703125 6.890625 
Q 35.15625 6.890625 40.078125 11.328125 
Q 45.015625 15.765625 45.015625 23.390625 
Q 45.015625 31 40.078125 35.4375 
Q 35.15625 39.890625 26.703125 39.890625 
Q 22.75 39.890625 18.8125 39.015625 
Q 14.890625 38.140625 10.796875 36.28125 
z
" id="DejaVuSans-53"/>
       </defs>
       <use xlink:href="#DejaVuSans-8722"/>
       <use x="83.789062" xlink:href="#DejaVuSans-48"/>
       <use x="147.412109" xlink:href="#DejaVuSans-46"/>
       <use x="179.199219" xlink:href="#DejaVuSans-55"/>
       <use x="242.822266" xlink:href="#DejaVuSans-53"/>
      </g>
     </g>
    </g>
    <g id="xtick_3">
     <g id="line2d_3">
      <g>
       <use style="stroke:#000000;stroke-width:0.8;" x="232.010182" xlink:href="#m7e4b176c04" y="285.156"/>
      </g>
     </g>
     <g id="text_3">
      <!-- −0.50 -->
      <g transform="translate(216.687526 299.754438)scale(0.1 -0.1)">
       <use xlink:href="#DejaVuSans-8722"/>
       <use x="83.789062" xlink:href="#DejaVuSans-48"/>
       <use x="147.412109" xlink:href="#DejaVuSans-46"/>
       <use x="179.199219" xlink:href="#DejaVuSans-53"/>
       <use x="242.822266" xlink:href="#DejaVuSans-48"/>
      </g>
     </g>
    </g>
    <g id="xtick_4">
     <g id="line2d_4">
      <g>
       <use style="stroke:#000000;stroke-width:0.8;" x="292.756091" xlink:href="#m7e4b176c04" y="285.156"/>
      </g>
     </g>
     <g id="text_4">
      <!-- −0.25 -->
      <g transform="translate(277.433435 299.754438)scale(0.1 -0.1)">
       <defs>
        <path d="M 19.1875 8.296875 
L 53.609375 8.296875 
L 53.609375 0 
L 7.328125 0 
L 7.328125 8.296875 
Q 12.9375 14.109375 22.625 23.890625 
Q 32.328125 33.6875 34.8125 36.53125 
Q 39.546875 41.84375 41.421875 45.53125 
Q 43.3125 49.21875 43.3125 52.78125 
Q 43.3125 58.59375 39.234375 62.25 
Q 35.15625 65.921875 28.609375 65.921875 
Q 23.96875 65.921875 18.8125 64.3125 
Q 13.671875 62.703125 7.8125 59.421875 
L 7.8125 69.390625 
Q 13.765625 71.78125 18.9375 73 
Q 24.125 74.21875 28.421875 74.21875 
Q 39.75 74.21875 46.484375 68.546875 
Q 53.21875 62.890625 53.21875 53.421875 
Q 53.21875 48.921875 51.53125 44.890625 
Q 49.859375 40.875 45.40625 35.40625 
Q 44.1875 33.984375 37.640625 27.21875 
Q 31.109375 20.453125 19.1875 8.296875 
z
" id="DejaVuSans-50"/>
       </defs>
       <use xlink:href="#DejaVuSans-8722"/>
       <use x="83.789062" xlink:href="#DejaVuSans-48"/>
       <use x="147.412109" xlink:href="#DejaVuSans-46"/>
       <use x="179.199219" xlink:href="#DejaVuSans-50"/>
       <use x="242.822266" xlink:href="#DejaVuSans-53"/>
      </g>
     </g>
    </g>
    <g id="xtick_5">
     <g id="line2d_5">
      <g>
       <use style="stroke:#000000;stroke-width:0.8;" x="353.502" xlink:href="#m7e4b176c04" y="285.156"/>
      </g>
     </g>
     <g id="text_5">
      <!-- 0.00 -->
      <g transform="translate(342.369187 299.754438)scale(0.1 -0.1)">
       <use xlink:href="#DejaVuSans-48"/>
       <use x="63.623047" xlink:href="#DejaVuSans-46"/>
       <use x="95.410156" xlink:href="#DejaVuSans-48"/>
       <use x="159.033203" xlink:href="#DejaVuSans-48"/>
      </g>
     </g>
    </g>
    <g id="xtick_6">
     <g id="line2d_6">
      <g>
       <use style="stroke:#000000;stroke-width:0.8;" x="414.247909" xlink:href="#m7e4b176c04" y="285.156"/>
      </g>
     </g>
     <g id="text_6">
      <!-- 0.25 -->
      <g transform="translate(403.115097 299.754438)scale(0.1 -0.1)">
       <use xlink:href="#DejaVuSans-48"/>
       <use x="63.623047" xlink:href="#DejaVuSans-46"/>
       <use x="95.410156" xlink:href="#DejaVuSans-50"/>
       <use x="159.033203" xlink:href="#DejaVuSans-53"/>
      </g>
     </g>
    </g>
    <g id="xtick_7">
     <g id="line2d_7">
      <g>
       <use style="stroke:#000000;stroke-width:0.8;" x="474.993818" xlink:href="#m7e4b176c04" y="285.156"/>
      </g>
     </g>
     <g id="text_7">
      <!-- 0.50 -->
      <g transform="translate(463.861006 299.754438)scale(0.1 -0.1)">
       <use xlink:href="#DejaVuSans-48"/>
       <use x="63.623047" xlink:href="#DejaVuSans-46"/>
       <use x="95.410156" xlink:href="#DejaVuSans-53"/>
       <use x="159.033203" xlink:href="#DejaVuSans-48"/>
      </g>
     </g>
    </g>
    <g id="xtick_8">
     <g id="line2d_8">
      <g>
       <use style="stroke:#000000;stroke-width:0.8;" x="535.739727" xlink:href="#m7e4b176c04" y="285.156"/>
      </g>
     </g>
     <g id="text_8">
      <!-- 0.75 -->
      <g transform="translate(524.606915 299.754438)scale(0.1 -0.1)">
       <use xlink:href="#DejaVuSans-48"/>
       <use x="63.623047" xlink:href="#DejaVuSans-46"/>
       <use x="95.410156" xlink:href="#DejaVuSans-55"/>
       <use x="159.033203" xlink:href="#DejaVuSans-53"/>
      </g>
     </g>
    </g>
    <g id="xtick_9">
     <g id="line2d_9">
      <g>
       <use style="stroke:#000000;stroke-width:0.8;" x="596.485636" xlink:href="#m7e4b176c04" y="285.156"/>
      </g>
     </g>
     <g id="text_9">
      <!-- 1.00 -->
      <g transform="translate(585.352824 299.754438)scale(0.1 -0.1)">
       <use xlink:href="#DejaVuSans-49"/>
       <use x="63.623047" xlink:href="#DejaVuSans-46"/>
       <use x="95.410156" xlink:href="#DejaVuSans-48"/>
       <use x="159.033203" xlink:href="#DejaVuSans-48"/>
      </g>
     </g>
    </g>
   </g>
   <g id="matplotlib.axis_2">
    <g id="ytick_1">
     <g id="line2d_10">
      <defs>
       <path d="M 0 0 
L -3.5 0 
" id="m573c261cd3" style="stroke:#000000;stroke-width:0.8;"/>
      </defs>
      <g>
       <use style="stroke:#000000;stroke-width:0.8;" x="86.22" xlink:href="#m573c261cd3" y="266.443138"/>
      </g>
     </g>
     <g id="text_10">
      <!-- −2 -->
      <g transform="translate(64.477812 270.242357)scale(0.1 -0.1)">
       <use xlink:href="#DejaVuSans-8722"/>
       <use x="83.789062" xlink:href="#DejaVuSans-50"/>
      </g>
     </g>
    </g>
    <g id="ytick_2">
     <g id="line2d_11">
      <g>
       <use style="stroke:#000000;stroke-width:0.8;" x="86.22" xlink:href="#m573c261cd3" y="222.496811"/>
      </g>
     </g>
     <g id="text_11">
      <!-- −1 -->
      <g transform="translate(64.477812 226.29603)scale(0.1 -0.1)">
       <use xlink:href="#DejaVuSans-8722"/>
       <use x="83.789062" xlink:href="#DejaVuSans-49"/>
      </g>
     </g>
    </g>
    <g id="ytick_3">
     <g id="line2d_12">
      <g>
       <use style="stroke:#000000;stroke-width:0.8;" x="86.22" xlink:href="#m573c261cd3" y="178.550485"/>
      </g>
     </g>
     <g id="text_12">
      <!-- 0 -->
      <g transform="translate(72.8575 182.349704)scale(0.1 -0.1)">
       <use xlink:href="#DejaVuSans-48"/>
      </g>
     </g>
    </g>
    <g id="ytick_4">
     <g id="line2d_13">
      <g>
       <use style="stroke:#000000;stroke-width:0.8;" x="86.22" xlink:href="#m573c261cd3" y="134.604158"/>
      </g>
     </g>
     <g id="text_13">
      <!-- 1 -->
      <g transform="translate(72.8575 138.403377)scale(0.1 -0.1)">
       <use xlink:href="#DejaVuSans-49"/>
      </g>
     </g>
    </g>
    <g id="ytick_5">
     <g id="line2d_14">
      <g>
       <use style="stroke:#000000;stroke-width:0.8;" x="86.22" xlink:href="#m573c261cd3" y="90.657832"/>
      </g>
     </g>
     <g id="text_14">
      <!-- 2 -->
      <g transform="translate(72.8575 94.45705)scale(0.1 -0.1)">
       <use xlink:href="#DejaVuSans-50"/>
      </g>
     </g>
    </g>
    <g id="ytick_6">
     <g id="line2d_15">
      <g>
       <use style="stroke:#000000;stroke-width:0.8;" x="86.22" xlink:href="#m573c261cd3" y="46.711505"/>
      </g>
     </g>
     <g id="text_15">
      <!-- 3 -->
      <g transform="translate(72.8575 50.510724)scale(0.1 -0.1)">
       <defs>
        <path d="M 40.578125 39.3125 
Q 47.65625 37.796875 51.625 33 
Q 55.609375 28.21875 55.609375 21.1875 
Q 55.609375 10.40625 48.1875 4.484375 
Q 40.765625 -1.421875 27.09375 -1.421875 
Q 22.515625 -1.421875 17.65625 -0.515625 
Q 12.796875 0.390625 7.625 2.203125 
L 7.625 11.71875 
Q 11.71875 9.328125 16.59375 8.109375 
Q 21.484375 6.890625 26.8125 6.890625 
Q 36.078125 6.890625 40.9375 10.546875 
Q 45.796875 14.203125 45.796875 21.1875 
Q 45.796875 27.640625 41.28125 31.265625 
Q 36.765625 34.90625 28.71875 34.90625 
L 20.21875 34.90625 
L 20.21875 43.015625 
L 29.109375 43.015625 
Q 36.375 43.015625 40.234375 45.921875 
Q 44.09375 48.828125 44.09375 54.296875 
Q 44.09375 59.90625 40.109375 62.90625 
Q 36.140625 65.921875 28.71875 65.921875 
Q 24.65625 65.921875 20.015625 65.03125 
Q 15.375 64.15625 9.8125 62.3125 
L 9.8125 71.09375 
Q 15.4375 72.65625 20.34375 73.4375 
Q 25.25 74.21875 29.59375 74.21875 
Q 40.828125 74.21875 47.359375 69.109375 
Q 53.90625 64.015625 53.90625 55.328125 
Q 53.90625 49.265625 50.4375 45.09375 
Q 46.96875 40.921875 40.578125 39.3125 
z
" id="DejaVuSans-51"/>
       </defs>
       <use xlink:href="#DejaVuSans-51"/>
      </g>
     </g>
    </g>
   </g>
   <g id="line2d_16">
    <path clip-path="url(#pab075b4532)" d="M 110.518364 126.699372 
L 112.466128 124.074891 
L 114.413893 121.963699 
L 116.361657 120.313777 
L 118.309422 119.061357 
L 120.257187 118.135873 
L 122.204951 117.465144 
L 125.126598 116.787957 
L 129.022128 116.205884 
L 138.760951 115.07523 
L 142.65648 114.825379 
L 145.578127 114.842867 
L 148.499774 115.085552 
L 151.421421 115.564987 
L 154.343068 116.260191 
L 158.238597 117.438293 
L 168.951302 120.939206 
L 171.872949 121.662442 
L 174.794596 122.188701 
L 177.716243 122.485015 
L 180.63789 122.539458 
L 183.559537 122.372222 
L 188.428948 121.798268 
L 191.350595 121.495015 
L 193.29836 121.426195 
L 195.246125 121.541935 
L 197.193889 121.912388 
L 199.141654 122.606086 
L 201.089418 123.685346 
L 203.037183 125.201444 
L 204.984948 127.190092 
L 206.932712 129.667504 
L 208.880477 132.627396 
L 210.828242 136.039129 
L 212.776006 139.847168 
L 215.697653 146.122385 
L 223.488712 163.379601 
L 225.436476 167.079783 
L 227.384241 170.265141 
L 229.332005 172.820873 
L 230.305888 173.832285 
L 231.27977 174.652849 
L 232.253652 175.274757 
L 233.227535 175.691942 
L 234.201417 175.900136 
L 235.175299 175.896931 
L 236.149182 175.681731 
L 237.123064 175.255732 
L 238.096946 174.621864 
L 239.070829 173.78471 
L 240.044711 172.750345 
L 241.018593 171.526255 
L 242.966358 168.544706 
L 244.914122 164.921027 
L 246.861887 160.746636 
L 248.809652 156.117024 
L 251.731299 148.521754 
L 255.626828 137.604384 
L 262.444004 117.60016 
L 269.26118 97.732956 
L 273.156709 87.096179 
L 276.078356 79.889032 
L 278.026121 75.636617 
L 279.973886 71.957143 
L 281.92165 68.965712 
L 282.895533 67.762676 
L 283.869415 66.771879 
L 284.843297 66.004857 
L 285.817179 65.471838 
L 286.791062 65.181469 
L 287.764944 65.140645 
L 288.738826 65.354293 
L 289.712709 65.825234 
L 290.686591 66.553999 
L 291.660473 67.538794 
L 292.634356 68.775353 
L 293.608238 70.25699 
L 295.556003 73.916438 
L 297.503767 78.41545 
L 299.451532 83.617287 
L 302.373179 92.367667 
L 309.190355 113.757218 
L 311.13812 119.225023 
L 313.085884 124.089361 
L 315.033649 128.222368 
L 316.981413 131.53313 
L 317.955296 132.862657 
L 318.929178 133.970721 
L 319.90306 134.857318 
L 320.876943 135.524889 
L 321.850825 135.978264 
L 322.824707 136.224427 
L 323.79859 136.272466 
L 324.772472 136.133291 
L 325.746354 135.81947 
L 326.720236 135.344978 
L 328.668001 133.975465 
L 330.615766 132.155373 
L 332.56353 130.021827 
L 340.354589 120.915814 
L 342.302353 119.01509 
L 344.250118 117.405963 
L 346.197883 116.124425 
L 348.145647 115.189555 
L 350.093412 114.607039 
L 352.041177 114.373423 
L 353.988941 114.480469 
L 355.936706 114.919371 
L 357.88447 115.68439 
L 359.832235 116.775495 
L 361.78 118.199927 
L 363.727764 119.972385 
L 365.675529 122.113915 
L 367.623293 124.649464 
L 369.571058 127.604301 
L 371.518823 130.999691 
L 373.466587 134.848063 
L 375.414352 139.148175 
L 377.362117 143.880749 
L 380.283764 151.695214 
L 384.179293 163.053025 
L 390.022587 180.245407 
L 391.970351 185.466994 
L 393.918116 190.203528 
L 395.86588 194.336529 
L 397.813645 197.772161 
L 399.76141 200.447772 
L 400.735292 201.49068 
L 401.709174 202.336425 
L 402.683057 202.987555 
L 403.656939 203.448978 
L 404.630821 203.727859 
L 405.604704 203.833525 
L 406.578586 203.777283 
L 407.552468 203.572244 
L 408.526351 203.233117 
L 410.474115 202.217919 
L 412.42188 200.871631 
L 419.239056 195.683955 
L 421.186821 194.629352 
L 423.134585 193.96897 
L 424.108467 193.811838 
L 425.08235 193.780803 
L 426.056232 193.882216 
L 427.030114 194.121151 
L 428.003997 194.501481 
L 428.977879 195.025923 
L 429.951761 195.696133 
L 430.925644 196.512803 
L 432.873408 198.583815 
L 434.821173 201.22771 
L 436.768938 204.421816 
L 438.716702 208.133158 
L 440.664467 212.318748 
L 442.612231 216.925217 
L 445.533878 224.479701 
L 449.429408 235.322786 
L 454.298819 248.963448 
L 457.220466 256.492223 
L 459.168231 260.989595 
L 461.115995 264.941874 
L 463.06376 268.255217 
L 465.011525 270.85434 
L 465.985407 271.868388 
L 466.959289 272.68549 
L 467.933171 273.30248 
L 468.907054 273.71762 
L 469.880936 273.930505 
L 470.854818 273.942 
L 471.828701 273.754102 
L 472.802583 273.369868 
L 473.776465 272.793187 
L 474.750348 272.028694 
L 475.72423 271.081546 
L 476.698112 269.95729 
L 478.645877 267.200376 
L 480.593641 263.803195 
L 482.541406 259.806787 
L 484.489171 255.244293 
L 486.436935 250.138944 
L 488.3847 244.503659 
L 490.332465 238.342467 
L 492.280229 231.653562 
L 495.201876 220.624316 
L 498.123523 208.411394 
L 501.04517 195.085694 
L 504.940699 175.895492 
L 514.679522 126.441322 
L 516.627287 117.609104 
L 518.575052 109.572287 
L 520.522816 102.515012 
L 522.470581 96.603827 
L 523.444463 94.123257 
L 524.418345 91.979673 
L 525.392228 90.185503 
L 526.36611 88.750781 
L 527.339992 87.682967 
L 528.313875 86.986828 
L 529.287757 86.66439 
L 530.261639 86.714853 
L 531.235522 87.134583 
L 532.209404 87.917165 
L 533.183286 89.053398 
L 534.157169 90.531421 
L 535.131051 92.336851 
L 536.104933 94.452874 
L 538.052698 99.538648 
L 540.000462 105.61388 
L 541.948227 112.479126 
L 544.869874 123.784497 
L 551.68705 151.029223 
L 554.608697 161.473218 
L 556.556462 167.634859 
L 558.504226 173.032317 
L 560.451991 177.595676 
L 562.399756 181.287037 
L 563.373638 182.802443 
L 564.34752 184.099704 
L 565.321402 185.182579 
L 566.295285 186.056582 
L 567.269167 186.728819 
L 568.243049 187.207983 
L 569.216932 187.504179 
L 570.190814 187.628855 
L 571.164696 187.594664 
L 572.138579 187.415389 
L 574.086343 186.681272 
L 576.034108 185.553227 
L 578.955755 183.418687 
L 582.851284 180.462677 
L 584.799049 179.224342 
L 586.746813 178.291031 
L 588.694578 177.747132 
L 589.66846 177.641083 
L 590.642343 177.652985 
L 591.616225 177.786259 
L 592.590107 178.042612 
L 593.563989 178.42204 
L 595.511754 179.541845 
L 596.485636 180.274135 
L 596.485636 180.274135 
" style="fill:none;stroke:#1f77b4;stroke-linecap:square;stroke-width:1.5;"/>
   </g>
   <g id="line2d_17">
    <path clip-path="url(#pab075b4532)" d="M 110.518364 179.691728 
L 117.33554 196.416698 
L 119.283304 200.293341 
L 121.231069 203.428458 
L 122.204951 204.690062 
L 123.178834 205.739151 
L 124.152716 206.57208 
L 125.126598 207.186579 
L 126.100481 207.581293 
L 127.074363 207.755197 
L 128.048245 207.70753 
L 129.022128 207.437675 
L 129.99601 206.94544 
L 130.969892 206.231414 
L 131.943774 205.297586 
L 132.917657 204.147989 
L 133.891539 202.789508 
L 135.839304 199.491906 
L 137.787068 195.542388 
L 140.708715 188.892867 
L 143.630362 182.321506 
L 145.578127 178.589239 
L 146.552009 177.049627 
L 147.525891 175.777477 
L 148.499774 174.80239 
L 149.473656 174.14612 
L 150.447538 173.82165 
L 151.421421 173.832394 
L 152.395303 174.171841 
L 153.369185 174.823483 
L 154.343068 175.761117 
L 155.31695 176.949455 
L 157.264715 179.89784 
L 162.134126 187.974972 
L 163.108008 189.233699 
L 164.081891 190.245607 
L 165.055773 190.967255 
L 166.029655 191.363432 
L 167.003538 191.4082 
L 167.97742 191.085608 
L 168.951302 190.389926 
L 169.925185 189.325584 
L 170.899067 187.906752 
L 171.872949 186.156601 
L 172.846831 184.106138 
L 174.794596 179.25986 
L 176.742361 173.720438 
L 181.611772 159.307205 
L 183.559537 154.170194 
L 185.507302 149.735439 
L 187.455066 146.121445 
L 188.428948 144.639403 
L 189.402831 143.375561 
L 190.376713 142.327273 
L 191.350595 141.489579 
L 192.324478 140.855698 
L 193.29836 140.417547 
L 194.272242 140.166321 
L 195.246125 140.092845 
L 196.220007 140.188042 
L 197.193889 140.443306 
L 198.167772 140.850822 
L 199.141654 141.403849 
L 201.089418 142.92644 
L 203.037183 144.987119 
L 204.984948 147.589833 
L 206.932712 150.766025 
L 208.880477 154.569506 
L 210.828242 159.065929 
L 212.776006 164.317212 
L 214.723771 170.36229 
L 216.671535 177.196669 
L 218.6193 184.754423 
L 221.540947 197.122621 
L 227.384241 222.406951 
L 229.332005 229.863595 
L 231.27977 236.372474 
L 233.227535 241.769718 
L 234.201417 244.030364 
L 235.175299 246.002175 
L 236.149182 247.696059 
L 237.123064 249.128761 
L 238.096946 250.321851 
L 239.070829 251.300337 
L 240.044711 252.091094 
L 241.018593 252.721342 
L 242.966358 253.601053 
L 244.914122 254.105453 
L 246.861887 254.320638 
L 248.809652 254.235589 
L 249.783534 254.05117 
L 250.757416 253.746717 
L 251.731299 253.298714 
L 252.705181 252.681545 
L 253.679063 251.868822 
L 254.652946 250.834522 
L 255.626828 249.554301 
L 256.60071 248.006567 
L 257.574592 246.173439 
L 258.548475 244.041572 
L 259.522357 241.602844 
L 261.470122 235.801264 
L 263.417886 228.823624 
L 265.365651 220.825928 
L 268.287298 207.493039 
L 273.156709 184.77229 
L 275.104474 176.680284 
L 277.052239 169.663395 
L 279.000003 163.900442 
L 279.973886 161.499382 
L 280.947768 159.40087 
L 282.895533 155.988895 
L 284.843297 153.318222 
L 287.764944 149.657693 
L 289.712709 146.696684 
L 290.686591 144.887031 
L 291.660473 142.799876 
L 292.634356 140.406006 
L 294.58212 134.648081 
L 296.529885 127.653831 
L 298.477649 119.680699 
L 304.320943 94.797553 
L 306.268708 88.125373 
L 307.24259 85.397401 
L 308.216473 83.14328 
L 309.190355 81.402552 
L 310.164237 80.204425 
L 311.13812 79.567537 
L 312.112002 79.499731 
L 313.085884 79.998399 
L 314.059766 81.050867 
L 315.033649 82.635117 
L 316.007531 84.720556 
L 316.981413 87.269072 
L 317.955296 90.236032 
L 319.90306 97.221207 
L 321.850825 105.232979 
L 328.668001 134.634855 
L 330.615766 141.729354 
L 332.56353 147.717347 
L 334.511295 152.496435 
L 335.485177 154.438584 
L 336.45906 156.103427 
L 337.432942 157.517299 
L 338.406824 158.714112 
L 340.354589 160.623268 
L 344.250118 163.846006 
L 346.197883 165.89735 
L 347.171765 167.157278 
L 349.11953 170.232801 
L 351.067294 174.054714 
L 353.015059 178.505624 
L 360.806117 197.448633 
L 362.753882 201.150833 
L 364.701647 204.085518 
L 365.675529 205.24143 
L 366.649411 206.182788 
L 367.623293 206.906728 
L 368.597176 207.41148 
L 369.571058 207.695898 
L 370.54494 207.759105 
L 371.518823 207.600401 
L 372.492705 207.219336 
L 373.466587 206.616064 
L 374.44047 205.791776 
L 375.414352 204.749398 
L 376.388234 203.4943 
L 378.335999 200.3841 
L 380.283764 196.580395 
L 383.20541 190.027478 
L 386.127057 183.359617 
L 388.074822 179.448293 
L 389.048704 177.788112 
L 390.022587 176.378098 
L 390.996469 175.251247 
L 391.970351 174.433371 
L 392.944234 173.941971 
L 393.918116 173.78529 
L 394.891998 173.96183 
L 395.86588 174.460048 
L 396.839763 175.258548 
L 397.813645 176.326478 
L 399.76141 179.105228 
L 405.604704 188.632174 
L 406.578586 189.773397 
L 407.552468 190.645114 
L 408.526351 191.207867 
L 409.500233 191.430966 
L 410.474115 191.29343 
L 411.447997 190.784365 
L 412.42188 189.903176 
L 413.395762 188.65923 
L 414.369644 187.071324 
L 415.343527 185.166696 
L 417.291291 180.551096 
L 419.239056 175.14937 
L 425.08235 157.966599 
L 427.030114 152.989701 
L 428.977879 148.75204 
L 430.925644 145.353097 
L 431.899526 143.980312 
L 432.873408 142.824738 
L 433.847291 141.882495 
L 434.821173 141.147639 
L 435.795055 140.612689 
L 436.768938 140.269143 
L 437.74282 140.107949 
L 438.716702 140.119919 
L 439.690584 140.296178 
L 440.664467 140.62848 
L 441.638349 141.109518 
L 442.612231 141.733193 
L 444.559996 143.391494 
L 446.507761 145.586206 
L 448.455525 148.328333 
L 450.40329 151.655626 
L 452.351054 155.626029 
L 454.298819 160.305909 
L 456.246584 165.753349 
L 458.194348 171.998297 
L 460.142113 179.022429 
L 462.089878 186.742258 
L 465.011525 199.260624 
L 469.880936 220.42291 
L 471.828701 228.079679 
L 473.776465 234.844849 
L 475.72423 240.529505 
L 477.671995 245.051839 
L 478.645877 246.882938 
L 479.619759 248.443798 
L 480.593641 249.753756 
L 481.567524 250.836264 
L 482.541406 251.717461 
L 483.515288 252.424619 
L 485.463053 253.421651 
L 487.410818 254.008221 
L 489.358582 254.292865 
L 491.306347 254.289242 
L 493.254111 253.915352 
L 494.227994 253.542232 
L 495.201876 253.012927 
L 496.175758 252.30129 
L 497.149641 251.380929 
L 498.123523 250.226573 
L 499.097405 248.815078 
L 500.071288 247.126618 
L 501.04517 245.145481 
L 502.019052 242.860858 
L 503.966817 237.365787 
L 505.914582 230.671485 
L 507.862346 222.908732 
L 510.783993 209.787664 
L 516.627287 182.66365 
L 518.575052 174.815702 
L 520.522816 168.10161 
L 522.470581 162.6608 
L 523.444463 160.413782 
L 524.418345 158.45678 
L 526.36611 155.268463 
L 528.313875 152.713047 
L 531.235522 148.983452 
L 532.209404 147.509858 
L 533.183286 145.824235 
L 534.157169 143.880257 
L 535.131051 141.642604 
L 536.104933 139.088511 
L 538.052698 133.008912 
L 540.000462 125.737889 
L 542.922109 113.316923 
L 545.843756 100.620615 
L 547.791521 92.99585 
L 549.739285 86.705007 
L 550.713168 84.208403 
L 551.68705 82.206665 
L 552.660932 80.734255 
L 553.634815 79.815093 
L 554.608697 79.462419 
L 555.582579 79.678814 
L 556.556462 80.456574 
L 557.530344 81.778235 
L 558.504226 83.617402 
L 559.478109 85.939584 
L 560.451991 88.703257 
L 562.399756 95.360564 
L 564.34752 103.159507 
L 568.243049 120.300053 
L 571.164696 132.712553 
L 573.112461 140.052565 
L 575.060226 146.33199 
L 577.00799 151.415419 
L 577.981872 153.503493 
L 578.955755 155.304216 
L 579.929637 156.839775 
L 580.903519 158.140443 
L 582.851284 160.192212 
L 585.772931 162.593332 
L 587.720696 164.308917 
L 589.66846 166.50537 
L 591.616225 169.39236 
L 593.563989 173.033461 
L 595.511754 177.344917 
L 596.485636 179.691723 
L 596.485636 179.691723 
" style="fill:none;stroke:#ff7f0e;stroke-linecap:square;stroke-width:1.5;"/>
   </g>
   <g id="line2d_18">
    <path clip-path="url(#pab075b4532)" d="M 110.518364 151.078873 
L 111.492246 150.979001 
L 112.466128 153.105292 
L 113.440011 156.915601 
L 114.413893 159.01037 
L 117.33554 162.533102 
L 119.283304 163.715669 
L 120.257187 164.147741 
L 121.231069 165.299697 
L 122.204951 166.223122 
L 124.152716 171.460723 
L 125.126598 173.303339 
L 126.100481 174.502437 
L 128.048245 175.526439 
L 129.022128 176.915307 
L 129.99601 180.311795 
L 131.943774 187.933573 
L 133.891539 198.871674 
L 134.865421 204.141469 
L 135.839304 208.653388 
L 136.813186 211.433121 
L 137.787068 212.843527 
L 138.760951 213.612067 
L 139.734833 213.90163 
L 140.708715 214.585821 
L 141.682598 216.85624 
L 143.630362 224.553237 
L 144.604244 227.975063 
L 145.578127 232.101673 
L 146.552009 237.194647 
L 147.525891 245.204945 
L 148.499774 251.328994 
L 150.447538 260.62579 
L 151.421421 266.692008 
L 152.395303 269.474867 
L 153.369185 269.122264 
L 154.343068 270.411673 
L 155.31695 268.425494 
L 156.290832 264.591899 
L 157.264715 263.310374 
L 158.238597 262.892306 
L 159.212479 263.365675 
L 161.160244 265.223162 
L 163.108008 263.938446 
L 164.081891 261.858503 
L 165.055773 256.34849 
L 166.029655 249.741653 
L 167.003538 244.365384 
L 167.97742 240.642942 
L 169.925185 236.626254 
L 173.820714 218.676932 
L 174.794596 215.305691 
L 175.768478 211.486391 
L 176.742361 209.801826 
L 177.716243 209.682953 
L 181.611772 214.648846 
L 182.585655 214.757647 
L 183.559537 214.29421 
L 184.533419 214.604065 
L 185.507302 213.382477 
L 186.481184 211.313131 
L 187.455066 210.032241 
L 188.428948 207.520932 
L 189.402831 204.177577 
L 190.376713 202.439298 
L 191.350595 200.944891 
L 192.324478 200.121725 
L 193.29836 200.548598 
L 194.272242 200.283725 
L 196.220007 195.755247 
L 197.193889 195.804239 
L 198.167772 197.083687 
L 200.115536 202.496353 
L 201.089418 202.902542 
L 202.063301 199.983502 
L 203.037183 198.327019 
L 204.011065 194.82556 
L 204.984948 189.624685 
L 205.95883 185.724983 
L 206.932712 182.764182 
L 207.906595 181.815555 
L 208.880477 179.941338 
L 209.854359 178.529061 
L 211.802124 176.139367 
L 212.776006 176.551277 
L 213.749889 176.114034 
L 214.723771 175.537545 
L 215.697653 177.060685 
L 216.671535 179.953748 
L 217.645418 180.60561 
L 218.6193 181.3948 
L 219.593182 180.860678 
L 220.567065 179.946503 
L 221.540947 178.54058 
L 222.514829 176.340044 
L 223.488712 175.534756 
L 224.462594 174.578755 
L 226.410359 171.6409 
L 227.384241 169.660402 
L 228.358123 168.248581 
L 230.305888 163.644111 
L 231.27977 159.3948 
L 233.227535 148.071752 
L 234.201417 140.856856 
L 235.175299 135.701631 
L 236.149182 131.569268 
L 237.123064 130.401442 
L 238.096946 129.014499 
L 239.070829 126.494318 
L 240.044711 124.47951 
L 241.992475 118.824845 
L 243.94024 113.303985 
L 245.888005 110.594964 
L 246.861887 109.566365 
L 247.835769 109.530397 
L 248.809652 109.381587 
L 249.783534 109.721499 
L 250.757416 110.861111 
L 252.705181 114.605762 
L 253.679063 116.995998 
L 254.652946 117.916492 
L 256.60071 116.621012 
L 257.574592 115.471355 
L 258.548475 115.347336 
L 259.522357 117.550767 
L 260.496239 121.274252 
L 262.444004 132.030976 
L 263.417886 138.709968 
L 267.313416 161.174652 
L 268.287298 165.448407 
L 269.26118 170.327499 
L 270.235062 173.629948 
L 271.208945 175.132464 
L 272.182827 175.726818 
L 275.104474 179.649309 
L 276.078356 181.626551 
L 277.052239 184.899754 
L 278.026121 186.279982 
L 279.000003 186.299641 
L 279.973886 186.038576 
L 280.947768 186.307667 
L 281.92165 185.860803 
L 282.895533 183.045957 
L 283.869415 181.120964 
L 284.843297 179.966769 
L 285.817179 178.20789 
L 286.791062 174.915549 
L 287.764944 172.538316 
L 288.738826 169.045569 
L 290.686591 160.41749 
L 291.660473 154.484042 
L 293.608238 138.771453 
L 294.58212 131.736072 
L 295.556003 126.463065 
L 298.477649 113.188705 
L 299.451532 107.79631 
L 301.399296 100.123301 
L 303.347061 93.796775 
L 304.320943 91.861206 
L 305.294826 91.970948 
L 306.268708 93.357981 
L 307.24259 94.125345 
L 308.216473 94.214172 
L 309.190355 95.015523 
L 310.164237 97.260494 
L 311.13812 99.068862 
L 313.085884 100.836769 
L 314.059766 103.325678 
L 315.033649 105.13807 
L 316.007531 106.375292 
L 316.981413 110.064092 
L 317.955296 112.304452 
L 318.929178 113.999583 
L 319.90306 115.216922 
L 320.876943 118.192827 
L 326.720236 149.127669 
L 327.694119 152.243416 
L 328.668001 153.858183 
L 329.641883 156.101235 
L 330.615766 156.900324 
L 331.589648 159.884076 
L 332.56353 163.468737 
L 333.537413 165.67823 
L 334.511295 167.265436 
L 335.485177 167.542431 
L 336.45906 169.33136 
L 337.432942 170.560576 
L 338.406824 172.806757 
L 340.354589 176.352251 
L 341.328471 178.856358 
L 343.276236 186.568252 
L 344.250118 188.581815 
L 345.224 188.578167 
L 346.197883 187.115611 
L 347.171765 187.029342 
L 348.145647 187.844552 
L 349.11953 187.109101 
L 352.041177 180.443168 
L 353.015059 179.23378 
L 353.988941 177.483923 
L 354.962823 174.825132 
L 355.936706 171.793619 
L 356.910588 168.261866 
L 358.858353 163.728697 
L 360.806117 160.440512 
L 361.78 157.214874 
L 362.753882 152.703008 
L 363.727764 147.342538 
L 364.701647 143.051225 
L 365.675529 139.398962 
L 366.649411 136.187188 
L 367.623293 131.938254 
L 368.597176 128.865346 
L 369.571058 126.805911 
L 370.54494 124.003531 
L 371.518823 121.678743 
L 372.492705 118.578484 
L 373.466587 116.930828 
L 374.44047 117.268369 
L 375.414352 118.242103 
L 376.388234 118.399024 
L 377.362117 119.300729 
L 378.335999 119.988438 
L 379.309881 120.431088 
L 380.283764 119.582234 
L 381.257646 119.231035 
L 382.231528 120.706195 
L 383.20541 121.454231 
L 384.179293 121.177453 
L 385.153175 123.672006 
L 386.127057 127.77642 
L 387.10094 133.174851 
L 388.074822 139.632539 
L 389.048704 144.008823 
L 390.996469 149.345272 
L 391.970351 150.335817 
L 392.944234 150.098568 
L 393.918116 149.696116 
L 394.891998 149.123553 
L 395.86588 149.512681 
L 396.839763 149.724586 
L 397.813645 151.774889 
L 398.787527 154.865152 
L 399.76141 158.50785 
L 400.735292 160.861522 
L 401.709174 160.962046 
L 402.683057 162.458196 
L 403.656939 162.957657 
L 404.630821 163.090238 
L 406.578586 163.684959 
L 407.552468 162.214475 
L 408.526351 159.278392 
L 411.447997 147.717625 
L 412.42188 144.110499 
L 413.395762 141.110518 
L 414.369644 136.414939 
L 415.343527 135.272989 
L 416.317409 135.483497 
L 417.291291 135.853184 
L 418.265174 134.577231 
L 419.239056 134.147852 
L 420.212938 134.414454 
L 421.186821 135.399997 
L 423.134585 138.905996 
L 424.108467 139.886043 
L 425.08235 138.800334 
L 426.056232 137.900803 
L 427.030114 136.458095 
L 428.003997 136.802637 
L 428.977879 136.325195 
L 429.951761 134.595425 
L 430.925644 132.472398 
L 431.899526 131.231716 
L 432.873408 128.610519 
L 433.847291 125.203998 
L 434.821173 122.98665 
L 435.795055 121.502505 
L 436.768938 119.810851 
L 437.74282 114.538096 
L 438.716702 110.607937 
L 439.690584 108.814485 
L 440.664467 108.799088 
L 441.638349 108.60024 
L 442.612231 108.529642 
L 443.586114 107.696487 
L 444.559996 107.091084 
L 445.533878 106.131381 
L 446.507761 103.723604 
L 447.481643 100.607451 
L 449.429408 95.018565 
L 450.40329 94.204825 
L 451.377172 95.932824 
L 453.324937 101.566911 
L 454.298819 103.914944 
L 456.246584 111.509458 
L 457.220466 116.586099 
L 459.168231 131.42217 
L 460.142113 139.808813 
L 461.115995 147.012204 
L 462.089878 153.287081 
L 463.06376 156.969588 
L 464.037642 158.689109 
L 465.011525 159.851343 
L 465.985407 161.286602 
L 466.959289 161.134444 
L 467.933171 161.548068 
L 468.907054 161.060207 
L 469.880936 160.236506 
L 470.854818 158.287613 
L 471.828701 157.244991 
L 472.802583 157.302073 
L 473.776465 157.588925 
L 474.750348 158.1785 
L 475.72423 158.942226 
L 476.698112 158.638492 
L 477.671995 158.035598 
L 480.593641 152.643196 
L 481.567524 148.150289 
L 484.489171 131.237094 
L 485.463053 126.784382 
L 486.436935 123.910083 
L 487.410818 122.402365 
L 489.358582 118.236847 
L 492.280229 108.051023 
L 493.254111 105.368702 
L 494.227994 105.043988 
L 495.201876 103.209102 
L 496.175758 100.367638 
L 497.149641 97.996189 
L 498.123523 96.095639 
L 499.097405 93.696716 
L 500.071288 90.88869 
L 502.019052 80.179633 
L 503.966817 72.97121 
L 505.914582 67.762282 
L 506.888464 63.974717 
L 507.862346 58.392656 
L 508.836228 53.69665 
L 509.810111 51.151838 
L 510.783993 49.662 
L 511.757875 51.194485 
L 513.70564 58.362994 
L 514.679522 61.769821 
L 516.627287 65.766981 
L 517.601169 66.83155 
L 518.575052 68.329479 
L 519.548934 72.694305 
L 520.522816 75.686932 
L 521.496698 78.250429 
L 524.418345 92.265013 
L 525.392228 95.666043 
L 527.339992 100.028598 
L 532.209404 115.567507 
L 533.183286 118.889912 
L 534.157169 121.344602 
L 535.131051 122.244162 
L 536.104933 120.865459 
L 537.078815 118.065624 
L 538.052698 114.835272 
L 539.02658 112.23972 
L 540.000462 108.067427 
L 540.974345 105.753891 
L 541.948227 104.712568 
L 542.922109 105.00476 
L 544.869874 103.656783 
L 545.843756 102.253519 
L 546.817639 104.166454 
L 549.739285 115.643846 
L 550.713168 118.827027 
L 551.68705 122.751108 
L 552.660932 127.423147 
L 553.634815 132.926504 
L 555.582579 145.762728 
L 556.556462 152.225911 
L 557.530344 156.949106 
L 559.478109 165.305485 
L 560.451991 168.142058 
L 562.399756 174.997869 
L 563.373638 178.631334 
L 564.34752 181.677834 
L 565.321402 183.58845 
L 566.295285 183.131987 
L 567.269167 183.595676 
L 568.243049 185.794468 
L 570.190814 193.92918 
L 571.164696 196.283753 
L 572.138579 197.136183 
L 573.112461 197.505762 
L 574.086343 197.625063 
L 575.060226 199.514631 
L 576.034108 201.017366 
L 577.00799 203.267287 
L 577.981872 206.402185 
L 579.929637 211.131517 
L 580.903519 211.646982 
L 581.877402 211.107455 
L 582.851284 210.412495 
L 583.825166 211.396851 
L 584.799049 213.06882 
L 585.772931 216.365584 
L 586.746813 218.327077 
L 587.720696 219.033395 
L 588.694578 220.279742 
L 589.66846 219.222827 
L 590.642343 216.232026 
L 591.616225 214.464314 
L 594.537872 211.420174 
L 595.511754 211.684835 
L 596.485636 212.69454 
L 596.485636 212.69454 
" style="fill:none;stroke:#2ca02c;stroke-linecap:square;stroke-width:1.5;"/>
   </g>
   <g id="line2d_19">
    <path clip-path="url(#pab075b4532)" d="M 110.518364 223.487232 
L 112.466128 226.835254 
L 114.413893 230.885778 
L 117.33554 237.589429 
L 118.309422 239.450466 
L 119.283304 240.990388 
L 120.257187 242.235756 
L 121.231069 243.241211 
L 122.204951 243.884667 
L 124.152716 244.516903 
L 125.126598 244.610669 
L 126.100481 244.470911 
L 127.074363 244.111932 
L 128.048245 243.394446 
L 131.943774 239.234107 
L 133.891539 237.237017 
L 134.865421 236.485531 
L 136.813186 235.374316 
L 137.787068 234.484112 
L 138.760951 233.066087 
L 139.734833 230.989442 
L 140.708715 228.168361 
L 141.682598 224.646898 
L 143.630362 216.072212 
L 145.578127 207.654203 
L 146.552009 204.538973 
L 147.525891 202.28643 
L 148.499774 200.763703 
L 149.473656 199.878523 
L 151.421421 199.128641 
L 153.369185 198.385463 
L 154.343068 197.8381 
L 155.31695 197.13537 
L 159.212479 193.562368 
L 160.186361 192.719685 
L 161.160244 191.712383 
L 162.134126 190.328312 
L 167.97742 180.357716 
L 171.872949 174.048246 
L 173.820714 169.735066 
L 178.690125 157.88926 
L 180.63789 153.54453 
L 182.585655 149.442988 
L 186.481184 140.006344 
L 190.376713 131.961626 
L 194.272242 125.362025 
L 195.246125 123.857392 
L 197.193889 121.511906 
L 201.089418 117.398197 
L 202.063301 116.703984 
L 203.037183 116.410924 
L 204.011065 116.503803 
L 204.984948 116.798062 
L 207.906595 117.135675 
L 208.880477 117.364975 
L 209.854359 117.769576 
L 210.828242 118.359405 
L 211.802124 119.332357 
L 212.776006 120.840601 
L 213.749889 122.943523 
L 216.671535 130.762074 
L 218.6193 136.914823 
L 219.593182 140.081452 
L 220.567065 142.81372 
L 221.540947 145.003582 
L 222.514829 146.794286 
L 223.488712 148.270001 
L 224.462594 149.304812 
L 226.410359 150.766464 
L 227.384241 151.669688 
L 228.358123 152.906108 
L 230.305888 156.288462 
L 232.253652 159.794921 
L 235.175299 164.459208 
L 237.123064 167.88551 
L 238.096946 169.270211 
L 240.044711 171.253951 
L 243.94024 175.276014 
L 244.914122 175.869844 
L 246.861887 176.482135 
L 247.835769 176.663296 
L 249.783534 176.697904 
L 251.731299 176.103783 
L 254.652946 175.042646 
L 255.626828 174.547546 
L 256.60071 173.778544 
L 257.574592 172.70922 
L 258.548475 171.168986 
L 259.522357 169.213994 
L 261.470122 164.885901 
L 262.444004 163.351618 
L 263.417886 162.508874 
L 264.391769 162.407605 
L 265.365651 162.818998 
L 266.339533 163.486301 
L 267.313416 164.411643 
L 268.287298 165.538916 
L 269.26118 166.401038 
L 270.235062 166.677517 
L 271.208945 166.501632 
L 272.182827 165.94703 
L 273.156709 164.786737 
L 274.130592 163.053489 
L 275.104474 160.693724 
L 277.052239 154.579995 
L 279.000003 147.729768 
L 279.973886 143.773863 
L 283.869415 126.49487 
L 285.817179 119.132753 
L 288.738826 109.581128 
L 289.712709 106.895928 
L 290.686591 104.842945 
L 291.660473 103.367012 
L 292.634356 102.337167 
L 293.608238 101.469485 
L 294.58212 100.92333 
L 295.556003 100.735997 
L 297.503767 100.663144 
L 298.477649 100.354864 
L 299.451532 99.887467 
L 300.425414 99.552026 
L 301.399296 99.578129 
L 302.373179 99.900647 
L 304.320943 100.883921 
L 305.294826 101.796111 
L 306.268708 103.458354 
L 307.24259 105.965102 
L 308.216473 109.207367 
L 309.190355 113.023459 
L 310.164237 117.52724 
L 312.112002 128.642531 
L 315.033649 146.349199 
L 316.007531 151.608053 
L 316.981413 156.121788 
L 318.929178 163.411909 
L 319.90306 166.560068 
L 320.876943 169.108677 
L 321.850825 170.682553 
L 322.824707 171.19955 
L 323.79859 171.072414 
L 324.772472 170.660555 
L 326.720236 169.615181 
L 327.694119 169.320271 
L 329.641883 169.118148 
L 330.615766 168.991767 
L 331.589648 168.464371 
L 332.56353 167.723992 
L 334.511295 165.797984 
L 335.485177 164.546817 
L 336.45906 162.923481 
L 337.432942 160.88843 
L 338.406824 158.274852 
L 340.354589 151.918369 
L 343.276236 142.583352 
L 345.224 137.024491 
L 346.197883 135.073668 
L 347.171765 133.958601 
L 348.145647 133.467872 
L 349.11953 133.379699 
L 350.093412 133.749105 
L 351.067294 134.604659 
L 352.041177 135.963143 
L 353.015059 137.888145 
L 354.962823 142.933152 
L 359.832235 156.072624 
L 361.78 160.48405 
L 362.753882 162.256582 
L 363.727764 163.604578 
L 365.675529 165.7118 
L 366.649411 166.642312 
L 367.623293 167.361609 
L 368.597176 167.771281 
L 370.54494 168.346792 
L 371.518823 168.672158 
L 372.492705 168.793217 
L 373.466587 168.698359 
L 374.44047 168.415444 
L 378.335999 166.603766 
L 379.309881 166.255102 
L 380.283764 166.078214 
L 383.20541 166.122573 
L 384.179293 165.82182 
L 387.10094 164.639311 
L 388.074822 164.676136 
L 390.022587 165.076923 
L 390.996469 165.481835 
L 391.970351 166.019763 
L 392.944234 166.718682 
L 393.918116 167.812322 
L 395.86588 170.689825 
L 397.813645 174.136253 
L 401.709174 181.662781 
L 406.578586 188.852569 
L 412.42188 197.800839 
L 413.395762 198.64444 
L 414.369644 198.966279 
L 415.343527 198.959955 
L 416.317409 198.645769 
L 417.291291 198.008852 
L 418.265174 197.022241 
L 420.212938 194.203266 
L 422.160703 191.402804 
L 424.108467 189.265929 
L 425.08235 188.597771 
L 426.056232 188.285453 
L 427.030114 188.232164 
L 428.003997 188.339339 
L 428.977879 188.661586 
L 430.925644 189.80194 
L 431.899526 190.046232 
L 433.847291 190.183389 
L 434.821173 190.473724 
L 435.795055 191.168927 
L 439.690584 195.448922 
L 441.638349 197.057772 
L 443.586114 198.074521 
L 445.533878 198.734596 
L 446.507761 199.441336 
L 447.481643 200.541613 
L 448.455525 201.905993 
L 450.40329 205.331374 
L 451.377172 207.434922 
L 452.351054 209.855053 
L 456.246584 220.824608 
L 460.142113 230.361461 
L 461.115995 231.885416 
L 462.089878 232.852193 
L 463.06376 233.399084 
L 464.037642 233.456435 
L 465.011525 232.974667 
L 468.907054 229.78487 
L 470.854818 227.730694 
L 473.776465 224.059201 
L 475.72423 221.405552 
L 476.698112 219.916369 
L 477.671995 218.035316 
L 479.619759 213.485425 
L 481.567524 207.897348 
L 484.489171 199.197022 
L 488.3847 188.755474 
L 490.332465 183.43745 
L 493.254111 174.515654 
L 495.201876 169.518471 
L 497.149641 165.170075 
L 499.097405 161.563581 
L 501.04517 158.375308 
L 502.019052 157.190141 
L 503.966817 155.566223 
L 504.940699 154.989224 
L 505.914582 154.581355 
L 506.888464 154.373896 
L 508.836228 154.31195 
L 510.783993 154.241698 
L 511.757875 153.963695 
L 512.731758 153.364535 
L 513.70564 152.470595 
L 517.601169 148.034641 
L 518.575052 146.7198 
L 520.522816 143.311394 
L 524.418345 135.631158 
L 526.36611 132.271063 
L 528.313875 129.608244 
L 529.287757 128.723999 
L 530.261639 128.322941 
L 531.235522 128.428548 
L 532.209404 129.342766 
L 536.104933 135.122985 
L 537.078815 136.113524 
L 541.948227 139.653569 
L 543.895992 140.722857 
L 544.869874 141.540372 
L 545.843756 142.809735 
L 549.739285 149.361579 
L 552.660932 154.504763 
L 553.634815 155.832667 
L 554.608697 156.861793 
L 557.530344 159.263752 
L 558.504226 160.383814 
L 560.451991 163.468737 
L 563.373638 168.351798 
L 567.269167 173.764142 
L 569.216932 176.654791 
L 570.190814 178.002577 
L 571.164696 179.125971 
L 572.138579 179.99192 
L 573.112461 180.627579 
L 574.086343 180.924763 
L 575.060226 180.62799 
L 576.034108 179.841323 
L 577.00799 178.577293 
L 577.981872 176.728116 
L 579.929637 171.648764 
L 581.877402 165.43923 
L 583.825166 159.192341 
L 591.616225 136.951168 
L 593.563989 130.027406 
L 596.485636 117.80706 
L 596.485636 117.80706 
" style="fill:none;stroke:#d62728;stroke-linecap:square;stroke-width:1.5;"/>
   </g>
   <g id="patch_3">
    <path d="M 86.22 285.156 
L 86.22 38.448 
" style="fill:none;stroke:#000000;stroke-linecap:square;stroke-linejoin:miter;stroke-width:0.8;"/>
   </g>
   <g id="patch_4">
    <path d="M 620.784 285.156 
L 620.784 38.448 
" style="fill:none;stroke:#000000;stroke-linecap:square;stroke-linejoin:miter;stroke-width:0.8;"/>
   </g>
   <g id="patch_5">
    <path d="M 86.22 285.156 
L 620.784 285.156 
" style="fill:none;stroke:#000000;stroke-linecap:square;stroke-linejoin:miter;stroke-width:0.8;"/>
   </g>
   <g id="patch_6">
    <path d="M 86.22 38.448 
L 620.784 38.448 
" style="fill:none;stroke:#000000;stroke-linecap:square;stroke-linejoin:miter;stroke-width:0.8;"/>
   </g>
   <g id="legend_1">
    <g id="patch_7">
     <path d="M 93.22 105.1605 
L 187.412188 105.1605 
Q 189.412188 105.1605 189.412188 103.1605 
L 189.412188 45.448 
Q 189.412188 43.448 187.412188 43.448 
L 93.22 43.448 
Q 91.22 43.448 91.22 45.448 
L 91.22 103.1605 
Q 91.22 105.1605 93.22 105.1605 
z
" style="fill:#ffffff;opacity:0.8;stroke:#cccccc;stroke-linejoin:miter;"/>
    </g>
    <g id="line2d_20">
     <path d="M 95.22 51.546437 
L 115.22 51.546437 
" style="fill:none;stroke:#1f77b4;stroke-linecap:square;stroke-width:1.5;"/>
    </g>
    <g id="line2d_21"/>
    <g id="text_16">
     <!-- RBF -->
     <g transform="translate(123.22 55.046437)scale(0.1 -0.1)">
      <defs>
       <path d="M 44.390625 34.1875 
Q 47.5625 33.109375 50.5625 29.59375 
Q 53.5625 26.078125 56.59375 19.921875 
L 66.609375 0 
L 56 0 
L 46.6875 18.703125 
Q 43.0625 26.03125 39.671875 28.421875 
Q 36.28125 30.8125 30.421875 30.8125 
L 19.671875 30.8125 
L 19.671875 0 
L 9.8125 0 
L 9.8125 72.90625 
L 32.078125 72.90625 
Q 44.578125 72.90625 50.734375 67.671875 
Q 56.890625 62.453125 56.890625 51.90625 
Q 56.890625 45.015625 53.6875 40.46875 
Q 50.484375 35.9375 44.390625 34.1875 
z
M 19.671875 64.796875 
L 19.671875 38.921875 
L 32.078125 38.921875 
Q 39.203125 38.921875 42.84375 42.21875 
Q 46.484375 45.515625 46.484375 51.90625 
Q 46.484375 58.296875 42.84375 61.546875 
Q 39.203125 64.796875 32.078125 64.796875 
z
" id="DejaVuSans-82"/>
       <path d="M 19.671875 34.8125 
L 19.671875 8.109375 
L 35.5 8.109375 
Q 43.453125 8.109375 47.28125 11.40625 
Q 51.125 14.703125 51.125 21.484375 
Q 51.125 28.328125 47.28125 31.5625 
Q 43.453125 34.8125 35.5 34.8125 
z
M 19.671875 64.796875 
L 19.671875 42.828125 
L 34.28125 42.828125 
Q 41.5 42.828125 45.03125 45.53125 
Q 48.578125 48.25 48.578125 53.8125 
Q 48.578125 59.328125 45.03125 62.0625 
Q 41.5 64.796875 34.28125 64.796875 
z
M 9.8125 72.90625 
L 35.015625 72.90625 
Q 46.296875 72.90625 52.390625 68.21875 
Q 58.5 63.53125 58.5 54.890625 
Q 58.5 48.1875 55.375 44.234375 
Q 52.25 40.28125 46.1875 39.3125 
Q 53.46875 37.75 57.5 32.78125 
Q 61.53125 27.828125 61.53125 20.40625 
Q 61.53125 10.640625 54.890625 5.3125 
Q 48.25 0 35.984375 0 
L 9.8125 0 
z
" id="DejaVuSans-66"/>
       <path d="M 9.8125 72.90625 
L 51.703125 72.90625 
L 51.703125 64.59375 
L 19.671875 64.59375 
L 19.671875 43.109375 
L 48.578125 43.109375 
L 48.578125 34.8125 
L 19.671875 34.8125 
L 19.671875 0 
L 9.8125 0 
z
" id="DejaVuSans-70"/>
      </defs>
      <use xlink:href="#DejaVuSans-82"/>
      <use x="69.482422" xlink:href="#DejaVuSans-66"/>
      <use x="138.085938" xlink:href="#DejaVuSans-70"/>
     </g>
    </g>
    <g id="line2d_22">
     <path d="M 95.22 66.224562 
L 115.22 66.224562 
" style="fill:none;stroke:#ff7f0e;stroke-linecap:square;stroke-width:1.5;"/>
    </g>
    <g id="line2d_23"/>
    <g id="text_17">
     <!-- Periodic RBF -->
     <g transform="translate(123.22 69.724562)scale(0.1 -0.1)">
      <defs>
       <path d="M 19.671875 64.796875 
L 19.671875 37.40625 
L 32.078125 37.40625 
Q 38.96875 37.40625 42.71875 40.96875 
Q 46.484375 44.53125 46.484375 51.125 
Q 46.484375 57.671875 42.71875 61.234375 
Q 38.96875 64.796875 32.078125 64.796875 
z
M 9.8125 72.90625 
L 32.078125 72.90625 
Q 44.34375 72.90625 50.609375 67.359375 
Q 56.890625 61.8125 56.890625 51.125 
Q 56.890625 40.328125 50.609375 34.8125 
Q 44.34375 29.296875 32.078125 29.296875 
L 19.671875 29.296875 
L 19.671875 0 
L 9.8125 0 
z
" id="DejaVuSans-80"/>
       <path d="M 56.203125 29.59375 
L 56.203125 25.203125 
L 14.890625 25.203125 
Q 15.484375 15.921875 20.484375 11.0625 
Q 25.484375 6.203125 34.421875 6.203125 
Q 39.59375 6.203125 44.453125 7.46875 
Q 49.3125 8.734375 54.109375 11.28125 
L 54.109375 2.78125 
Q 49.265625 0.734375 44.1875 -0.34375 
Q 39.109375 -1.421875 33.890625 -1.421875 
Q 20.796875 -1.421875 13.15625 6.1875 
Q 5.515625 13.8125 5.515625 26.8125 
Q 5.515625 40.234375 12.765625 48.109375 
Q 20.015625 56 32.328125 56 
Q 43.359375 56 49.78125 48.890625 
Q 56.203125 41.796875 56.203125 29.59375 
z
M 47.21875 32.234375 
Q 47.125 39.59375 43.09375 43.984375 
Q 39.0625 48.390625 32.421875 48.390625 
Q 24.90625 48.390625 20.390625 44.140625 
Q 15.875 39.890625 15.1875 32.171875 
z
" id="DejaVuSans-101"/>
       <path d="M 41.109375 46.296875 
Q 39.59375 47.171875 37.8125 47.578125 
Q 36.03125 48 33.890625 48 
Q 26.265625 48 22.1875 43.046875 
Q 18.109375 38.09375 18.109375 28.8125 
L 18.109375 0 
L 9.078125 0 
L 9.078125 54.6875 
L 18.109375 54.6875 
L 18.109375 46.1875 
Q 20.953125 51.171875 25.484375 53.578125 
Q 30.03125 56 36.53125 56 
Q 37.453125 56 38.578125 55.875 
Q 39.703125 55.765625 41.0625 55.515625 
z
" id="DejaVuSans-114"/>
       <path d="M 9.421875 54.6875 
L 18.40625 54.6875 
L 18.40625 0 
L 9.421875 0 
z
M 9.421875 75.984375 
L 18.40625 75.984375 
L 18.40625 64.59375 
L 9.421875 64.59375 
z
" id="DejaVuSans-105"/>
       <path d="M 30.609375 48.390625 
Q 23.390625 48.390625 19.1875 42.75 
Q 14.984375 37.109375 14.984375 27.296875 
Q 14.984375 17.484375 19.15625 11.84375 
Q 23.34375 6.203125 30.609375 6.203125 
Q 37.796875 6.203125 41.984375 11.859375 
Q 46.1875 17.53125 46.1875 27.296875 
Q 46.1875 37.015625 41.984375 42.703125 
Q 37.796875 48.390625 30.609375 48.390625 
z
M 30.609375 56 
Q 42.328125 56 49.015625 48.375 
Q 55.71875 40.765625 55.71875 27.296875 
Q 55.71875 13.875 49.015625 6.21875 
Q 42.328125 -1.421875 30.609375 -1.421875 
Q 18.84375 -1.421875 12.171875 6.21875 
Q 5.515625 13.875 5.515625 27.296875 
Q 5.515625 40.765625 12.171875 48.375 
Q 18.84375 56 30.609375 56 
z
" id="DejaVuSans-111"/>
       <path d="M 45.40625 46.390625 
L 45.40625 75.984375 
L 54.390625 75.984375 
L 54.390625 0 
L 45.40625 0 
L 45.40625 8.203125 
Q 42.578125 3.328125 38.25 0.953125 
Q 33.9375 -1.421875 27.875 -1.421875 
Q 17.96875 -1.421875 11.734375 6.484375 
Q 5.515625 14.40625 5.515625 27.296875 
Q 5.515625 40.1875 11.734375 48.09375 
Q 17.96875 56 27.875 56 
Q 33.9375 56 38.25 53.625 
Q 42.578125 51.265625 45.40625 46.390625 
z
M 14.796875 27.296875 
Q 14.796875 17.390625 18.875 11.75 
Q 22.953125 6.109375 30.078125 6.109375 
Q 37.203125 6.109375 41.296875 11.75 
Q 45.40625 17.390625 45.40625 27.296875 
Q 45.40625 37.203125 41.296875 42.84375 
Q 37.203125 48.484375 30.078125 48.484375 
Q 22.953125 48.484375 18.875 42.84375 
Q 14.796875 37.203125 14.796875 27.296875 
z
" id="DejaVuSans-100"/>
       <path d="M 48.78125 52.59375 
L 48.78125 44.1875 
Q 44.96875 46.296875 41.140625 47.34375 
Q 37.3125 48.390625 33.40625 48.390625 
Q 24.65625 48.390625 19.8125 42.84375 
Q 14.984375 37.3125 14.984375 27.296875 
Q 14.984375 17.28125 19.8125 11.734375 
Q 24.65625 6.203125 33.40625 6.203125 
Q 37.3125 6.203125 41.140625 7.25 
Q 44.96875 8.296875 48.78125 10.40625 
L 48.78125 2.09375 
Q 45.015625 0.34375 40.984375 -0.53125 
Q 36.96875 -1.421875 32.421875 -1.421875 
Q 20.0625 -1.421875 12.78125 6.34375 
Q 5.515625 14.109375 5.515625 27.296875 
Q 5.515625 40.671875 12.859375 48.328125 
Q 20.21875 56 33.015625 56 
Q 37.15625 56 41.109375 55.140625 
Q 45.0625 54.296875 48.78125 52.59375 
z
" id="DejaVuSans-99"/>
       <path id="DejaVuSans-32"/>
      </defs>
      <use xlink:href="#DejaVuSans-80"/>
      <use x="56.677734" xlink:href="#DejaVuSans-101"/>
      <use x="118.201172" xlink:href="#DejaVuSans-114"/>
      <use x="159.314453" xlink:href="#DejaVuSans-105"/>
      <use x="187.097656" xlink:href="#DejaVuSans-111"/>
      <use x="248.279297" xlink:href="#DejaVuSans-100"/>
      <use x="311.755859" xlink:href="#DejaVuSans-105"/>
      <use x="339.539062" xlink:href="#DejaVuSans-99"/>
      <use x="394.519531" xlink:href="#DejaVuSans-32"/>
      <use x="426.306641" xlink:href="#DejaVuSans-82"/>
      <use x="495.789062" xlink:href="#DejaVuSans-66"/>
      <use x="564.392578" xlink:href="#DejaVuSans-70"/>
     </g>
    </g>
    <g id="line2d_24">
     <path d="M 95.22 80.902687 
L 115.22 80.902687 
" style="fill:none;stroke:#2ca02c;stroke-linecap:square;stroke-width:1.5;"/>
    </g>
    <g id="line2d_25"/>
    <g id="text_18">
     <!-- Matern 3/2 -->
     <g transform="translate(123.22 84.402687)scale(0.1 -0.1)">
      <defs>
       <path d="M 9.8125 72.90625 
L 24.515625 72.90625 
L 43.109375 23.296875 
L 61.8125 72.90625 
L 76.515625 72.90625 
L 76.515625 0 
L 66.890625 0 
L 66.890625 64.015625 
L 48.09375 14.015625 
L 38.1875 14.015625 
L 19.390625 64.015625 
L 19.390625 0 
L 9.8125 0 
z
" id="DejaVuSans-77"/>
       <path d="M 34.28125 27.484375 
Q 23.390625 27.484375 19.1875 25 
Q 14.984375 22.515625 14.984375 16.5 
Q 14.984375 11.71875 18.140625 8.90625 
Q 21.296875 6.109375 26.703125 6.109375 
Q 34.1875 6.109375 38.703125 11.40625 
Q 43.21875 16.703125 43.21875 25.484375 
L 43.21875 27.484375 
z
M 52.203125 31.203125 
L 52.203125 0 
L 43.21875 0 
L 43.21875 8.296875 
Q 40.140625 3.328125 35.546875 0.953125 
Q 30.953125 -1.421875 24.3125 -1.421875 
Q 15.921875 -1.421875 10.953125 3.296875 
Q 6 8.015625 6 15.921875 
Q 6 25.140625 12.171875 29.828125 
Q 18.359375 34.515625 30.609375 34.515625 
L 43.21875 34.515625 
L 43.21875 35.40625 
Q 43.21875 41.609375 39.140625 45 
Q 35.0625 48.390625 27.6875 48.390625 
Q 23 48.390625 18.546875 47.265625 
Q 14.109375 46.140625 10.015625 43.890625 
L 10.015625 52.203125 
Q 14.9375 54.109375 19.578125 55.046875 
Q 24.21875 56 28.609375 56 
Q 40.484375 56 46.34375 49.84375 
Q 52.203125 43.703125 52.203125 31.203125 
z
" id="DejaVuSans-97"/>
       <path d="M 18.3125 70.21875 
L 18.3125 54.6875 
L 36.8125 54.6875 
L 36.8125 47.703125 
L 18.3125 47.703125 
L 18.3125 18.015625 
Q 18.3125 11.328125 20.140625 9.421875 
Q 21.96875 7.515625 27.59375 7.515625 
L 36.8125 7.515625 
L 36.8125 0 
L 27.59375 0 
Q 17.1875 0 13.234375 3.875 
Q 9.28125 7.765625 9.28125 18.015625 
L 9.28125 47.703125 
L 2.6875 47.703125 
L 2.6875 54.6875 
L 9.28125 54.6875 
L 9.28125 70.21875 
z
" id="DejaVuSans-116"/>
       <path d="M 54.890625 33.015625 
L 54.890625 0 
L 45.90625 0 
L 45.90625 32.71875 
Q 45.90625 40.484375 42.875 44.328125 
Q 39.84375 48.1875 33.796875 48.1875 
Q 26.515625 48.1875 22.3125 43.546875 
Q 18.109375 38.921875 18.109375 30.90625 
L 18.109375 0 
L 9.078125 0 
L 9.078125 54.6875 
L 18.109375 54.6875 
L 18.109375 46.1875 
Q 21.34375 51.125 25.703125 53.5625 
Q 30.078125 56 35.796875 56 
Q 45.21875 56 50.046875 50.171875 
Q 54.890625 44.34375 54.890625 33.015625 
z
" id="DejaVuSans-110"/>
       <path d="M 25.390625 72.90625 
L 33.6875 72.90625 
L 8.296875 -9.28125 
L 0 -9.28125 
z
" id="DejaVuSans-47"/>
      </defs>
      <use xlink:href="#DejaVuSans-77"/>
      <use x="86.279297" xlink:href="#DejaVuSans-97"/>
      <use x="147.558594" xlink:href="#DejaVuSans-116"/>
      <use x="186.767578" xlink:href="#DejaVuSans-101"/>
      <use x="248.291016" xlink:href="#DejaVuSans-114"/>
      <use x="287.654297" xlink:href="#DejaVuSans-110"/>
      <use x="351.033203" xlink:href="#DejaVuSans-32"/>
      <use x="382.820312" xlink:href="#DejaVuSans-51"/>
      <use x="446.443359" xlink:href="#DejaVuSans-47"/>
      <use x="480.134766" xlink:href="#DejaVuSans-50"/>
     </g>
    </g>
    <g id="line2d_26">
     <path d="M 95.22 95.580812 
L 115.22 95.580812 
" style="fill:none;stroke:#d62728;stroke-linecap:square;stroke-width:1.5;"/>
    </g>
    <g id="line2d_27"/>
    <g id="text_19">
     <!-- Matern 5/2 -->
     <g transform="translate(123.22 99.080812)scale(0.1 -0.1)">
      <use xlink:href="#DejaVuSans-77"/>
      <use x="86.279297" xlink:href="#DejaVuSans-97"/>
      <use x="147.558594" xlink:href="#DejaVuSans-116"/>
      <use x="186.767578" xlink:href="#DejaVuSans-101"/>
      <use x="248.291016" xlink:href="#DejaVuSans-114"/>
      <use x="287.654297" xlink:href="#DejaVuSans-110"/>
      <use x="351.033203" xlink:href="#DejaVuSans-32"/>
      <use x="382.820312" xlink:href="#DejaVuSans-53"/>
      <use x="446.443359" xlink:href="#DejaVuSans-47"/>
      <use x="480.134766" xlink:href="#DejaVuSans-50"/>
     </g>
    </g>
   </g>
  </g>
 </g>
 <defs>
  <clipPath id="pab075b4532">
   <rect height="246.708" width="534.564" x="86.22" y="38.448"/>
  </clipPath>
 </defs>
</svg>
